<?xml version="1.0" encoding="utf-8"?>
<!-- Generator: Adobe Illustrator 18.1.1, SVG Export Plug-In . SVG Version: 6.00 Build 0)  -->
<svg version="1.1" id="out" xmlns="http://www.w3.org/2000/svg" xmlns:xlink="http://www.w3.org/1999/xlink" x="0px" y="0px"
	 viewBox="194 -84 1000 960" enable-background="new 194 -84 1000 960" xml:space="preserve">
<g>
	<path fill="#000" d="M359,418.9V191c0-69,150-125,335-125c185,0,335,56,335,125v227.9c62.7,17.4,118.4,39.6,165,65.4V116
		C1194,5.5,970.1-84,694-84C417.9-84,194,5.5,194,116v368.3C240.6,458.5,296.3,436.3,359,418.9z"/>
	<path fill="#000" d="M1029,538.9V601c0,45.1-64,84.6-160,106.6V507c-55.7-7.2-114.4-11-175-11s-119.3,3.9-175,11v200.6
		c-96-22-160-61.5-160-106.6v-62.1c-62.7,17.4-118.4,39.6-165,65.5V676c0,110.5,223.9,200,500,200c276.1,0,500-89.5,500-200v-71.6
		C1147.4,578.6,1091.7,556.4,1029,538.9z"/>
	<path fill="#000" d="M519,209.5v177.6c55.7-7.2,114.3-11.1,175-11.1c60.7,0,119.3,3.9,175,11.1V209.5
		C818,197.8,758.2,191,694,191C629.8,191,569.9,197.8,519,209.5z"/>
</g>
</svg>
