<?xml version="1.0" encoding="utf-8"?>
<!-- Generator: Adobe Illustrator 19.1.0, SVG Export Plug-In . SVG Version: 6.00 Build 0)  -->
<svg version="1.0" id="Layer_1" xmlns="http://www.w3.org/2000/svg" xmlns:xlink="http://www.w3.org/1999/xlink" x="0px" y="0px"
	 viewBox="0 0 400 400" style="enable-background:new 0 0 400 400;" xml:space="preserve">
<style type="text/css">
	.st0{display:none;}
	.st1{display:inline;}
	.st2{fill:#53555A;}
	.st3{display:inline;fill:#53555A;}
	.st4{display:inline;fill:url(#SVGID_1_);}
	.st5{display:inline;fill:url(#SVGID_2_);}
	.st6{display:inline;fill:url(#SVGID_3_);}
	.st7{display:inline;fill:url(#SVGID_4_);}
	.st8{fill:url(#SVGID_5_);}
	.st9{fill:url(#SVGID_6_);}
	.st10{fill:url(#SVGID_7_);}
	.st11{fill:url(#SVGID_8_);}
	.st12{fill:url(#SVGID_9_);}
	.st13{fill:url(#SVGID_10_);}
	.st14{fill:url(#SVGID_11_);}
	.st15{fill:url(#SVGID_12_);}
</style>
<g class="st0">
	<g class="st1">
		<path class="st2" d="M-882.9,292.5V249h44.6v7.4h-34.4v9.7h20.1v7.4h-20.1v10.8h34.9v8.2H-882.9z"/>
		<path class="st2" d="M-827.1,292.5v-35.7h30.6c2.8,0,4.9,0.6,6.2,1.7c1.2,1.1,1.9,2.9,1.9,5.3v4.4c0,1.7-0.5,3-1.6,4.1
			c-1.1,1.1-2.6,1.7-4.6,1.9c2.1,0.3,3.7,1,4.8,2.2c1.1,1.2,1.7,2.7,1.7,4.6v4.6c0,2.3-0.9,4.1-2.6,5.3c-1.7,1.1-4.3,1.7-7.9,1.7
			H-827.1z M-800,262.6h-19v8.5h19c1.4,0,2.4-0.2,3-0.5c0.6-0.4,0.8-1.1,0.8-2v-3.4c0-0.9-0.3-1.6-0.8-2
			C-797.6,262.8-798.6,262.6-800,262.6z M-800,277h-19v9.1h19c1.6,0,2.7-0.2,3.2-0.7c0.6-0.5,0.8-1.3,0.8-2.5v-2.7
			c0-1.2-0.3-2-0.8-2.5C-797.4,277.3-798.4,277-800,277z"/>
		<path class="st2" d="M-777.8,292.5v-35.7h30.5c2.8,0,4.9,0.5,6.2,1.6c1.2,1.1,1.9,2.9,1.9,5.3v8c0,2.4-0.6,4.2-1.9,5.3
			c-1.3,1.1-3.4,1.7-6.2,1.7h-22.4v13.9H-777.8z M-751,263h-18.7v9.5h18.7c1.5,0,2.4-0.2,3-0.6c0.5-0.4,0.8-1.2,0.8-2.2v-3.8
			c0-1.1-0.3-1.8-0.8-2.2C-748.5,263.2-749.5,263-751,263z"/>
		<path class="st2" d="M-729,265.3c0-3.2,0.6-5.4,1.8-6.6c1.3-1.2,3.6-1.8,7.1-1.8h26.3c3.5,0,5.8,0.6,7,1.8
			c1.3,1.2,1.9,3.4,1.9,6.6v18.8c0,3.3-0.6,5.5-1.9,6.7c-1.2,1.2-3.6,1.8-7,1.8h-26.3c-3.4,0-5.8-0.6-7.1-1.8
			c-1.2-1.2-1.8-3.4-1.8-6.7V265.3z M-720.7,285.8h27.4v-22.7h-27.4V285.8z"/>
		<path class="st2" d="M-677.3,292.5l20.4-22.1l-20.8-20.9h13.2l13.8,14.6l13.1-14.6h11.5l-18.8,19.8l23.2,23.3h-13.6l-15.7-16.7
			l-14.5,16.7H-677.3z"/>
		<path class="st2" d="M-576.2,292.5v-19.3c0-1,0-1.9,0.1-2.6c0-0.3,0.1-0.8,0.1-1.5c0.1-0.7,0.1-1.2,0.1-1.6
			c-0.3,0.4-0.8,0.8-1.4,1.4c-0.4,0.4-0.9,0.9-1.7,1.5l-27.4,22.1h-5.9v-35.7h7.8v18.8c0,0.7,0,1.4-0.1,1.9c0,0.4-0.1,1-0.1,1.9
			c-0.1,0.8-0.1,1.6-0.2,2.4c0.7-0.8,1.3-1.4,1.9-1.9c0.5-0.5,1.3-1.1,2.4-1.9l26.3-21.1h5.9v35.7H-576.2z"/>
		<path class="st2" d="M-555.3,292.5v-35.7h6.6l16.5,21.6l16.2-21.6h6.5v35.7h-7.5v-22.1c0-0.6,0-1.2,0.1-1.6
			c0.1-0.6,0.1-1.3,0.2-2.2c-0.2,0.4-0.4,0.8-0.6,1.2c-0.2,0.4-0.4,0.7-0.5,1.1c-0.4,0.8-0.7,1.3-0.9,1.5l-13.2,17.9h-1.6
			l-13.2-17.9c-0.4-0.5-0.8-1.1-1.2-1.9c-0.5-0.7-0.7-1.3-0.9-1.7c0.1,0.8,0.1,1.4,0.2,2.1v1.7v22.1H-555.3z"/>
	</g>
	<g class="st1">
		<path class="st2" d="M-882.9,306.7h2.6l2.8,7.8l2.8-7.8h2.6v10.2h-1.9v-7.6l-2.7,7.6h-1.6l-2.7-7.6v7.6h-1.9V306.7z"/>
		<path class="st2" d="M-864.9,306.7v7.2l4.5-7.2h1.9v10.2h-1.9v-7.2l-4.5,7.2h-1.9v-10.2H-864.9z"/>
		<path class="st2" d="M-853.3,306.7h1.9v4.1h3.7v-4.1h1.9v10.2h-1.9v-4.3h-3.7v4.3h-1.9V306.7z"/>
		<path class="st2" d="M-840.6,306.7h5.5v1.8h-3.6v2.4h3.4v1.8h-3.4v2.3h3.6v1.8h-5.5V306.7z"/>
		<path class="st2" d="M-830.1,306.7h2.9c3.3,0,3.6,2.2,3.6,3.2c0,1.3-0.7,3.2-3.6,3.2h-1v3.9h-1.9V306.7z M-828.2,311.2h1.1
			c0.5,0,1.6-0.1,1.6-1.3c0-1.3-1.1-1.3-1.6-1.3h-1.1V311.2z"/>
		<path class="st2" d="M-816.6,306.7h1.5l4.2,10.2h-2.1l-1-2.6h-3.7l-1,2.6h-2.1L-816.6,306.7z M-814.7,312.4l-1.2-3l-1.2,3H-814.7z
			"/>
		<path class="st2" d="M-797.2,316.9h-2.1l-2.8-7.6l-2.8,7.6h-2.1l4-10.2h1.7L-797.2,316.9z"/>
		<path class="st2" d="M-791,306.7v3.9h1.5c2.5,0,3.4,1.6,3.4,3.1c0,1.9-1.4,3.1-3.4,3.1h-3.4v-10.2H-791z M-791,315h1.5
			c0.9,0,1.5-0.5,1.5-1.3c0-0.8-0.6-1.3-1.5-1.3h-1.5V315z"/>
		<path class="st2" d="M-781.6,306.7h1.9v4.1h3.7v-4.1h1.9v10.2h-1.9v-4.3h-3.7v4.3h-1.9V306.7z"/>
		<path class="st2" d="M-758.8,311.8c0,2.9-2.3,5.3-5.4,5.3s-5.4-2.3-5.4-5.3c0-2.9,2.3-5.3,5.4-5.3S-758.8,308.9-758.8,311.8z
			 M-760.6,311.8c0-1.9-1.5-3.5-3.5-3.5s-3.5,1.6-3.5,3.5c0,1.9,1.5,3.5,3.5,3.5C-762.1,315.3-760.6,313.7-760.6,311.8z"/>
		<path class="st2" d="M-750.1,311.7v1.6h-3.8v-1.6H-750.1z"/>
		<path class="st2" d="M-743.3,311.8l-3.5-5.1h2.2l2.4,3.5l2.4-3.5h2.2l-3.5,5.1l3.5,5.1h-2.2l-2.4-3.5l-2.4,3.5h-2.2L-743.3,311.8z
			"/>
		<path class="st2" d="M-731.4,306.7v7.2l4.5-7.2h1.9v10.2h-1.9v-7.2l-4.5,7.2h-1.9v-10.2H-731.4z"/>
		<path class="st2" d="M-719.7,306.7h2.6l2.8,7.8l2.8-7.8h2.6v10.2h-1.9v-7.6l-2.7,7.6h-1.6l-2.7-7.6v7.6h-1.9V306.7z"/>
		<path class="st2" d="M-701.8,306.7v7.2l4.5-7.2h1.9v10.2h-1.9v-7.2l-4.5,7.2h-1.9v-10.2H-701.8z"/>
		<path class="st2" d="M-683.7,316.9h-1.9V313h-1.7c-0.8,0-1.8-0.1-2.5-0.6c-0.8-0.7-0.9-1.7-0.9-2.4v-3.3h1.9v3
			c0,0.3,0,0.8,0.4,1.2c0.3,0.3,0.8,0.3,1.1,0.3h1.7v-4.5h1.9V316.9z"/>
		<path class="st2" d="M-678.5,306.7h5.5v1.8h-3.6v2.4h3.4v1.8h-3.4v2.3h3.6v1.8h-5.5V306.7z"/>
		<path class="st2" d="M-660.8,309.6c-0.5-0.6-1.3-1.3-2.6-1.3c-2,0-3.5,1.7-3.5,3.4c0,1.9,1.5,3.5,3.5,3.5c0.9,0,1.8-0.4,2.5-1.2
			h2.2c-0.8,1.8-2.5,3-4.7,3c-3.6,0-5.3-3-5.3-5.3c0-2.3,1.7-5.3,5.3-5.3c2.1,0,3.9,1.1,4.7,3.1H-660.8z"/>
		<path class="st2" d="M-654.1,306.7h1.9v4.4l3.2-4.4h2.3l-3.8,5l3.8,5.2h-2.3l-3.2-4.5v4.5h-1.9V306.7z"/>
		<path class="st2" d="M-638.6,306.7h1.5l4.2,10.2h-2.1l-1-2.6h-3.7l-1,2.6h-2.1L-638.6,306.7z M-636.6,312.4l-1.2-3l-1.2,3H-636.6z
			"/>
		<path class="st2" d="M-621.8,316.9h-1.9v-4h0l-2.7,4h-2.2l2.8-3.8c-1.6-0.2-2.7-1.3-2.7-3.1c0-1,0.4-3.3,3.8-3.3h2.9V316.9z
			 M-624.8,308.5c-1.5,0-1.9,0.8-1.9,1.5s0.4,1.5,1.9,1.5h1.1v-3H-624.8z"/>
		<path class="st2" d="M-609.9,306.7h1.9v4.4l3.2-4.4h2.3l-3.8,5l3.8,5.2h-2.3l-3.2-4.5v4.5h-1.9V306.7z"/>
		<path class="st2" d="M-588.5,311.8c0,2.9-2.3,5.3-5.4,5.3c-3,0-5.4-2.3-5.4-5.3c0-2.9,2.3-5.3,5.4-5.3
			C-590.8,306.5-588.5,308.9-588.5,311.8z M-590.4,311.8c0-1.9-1.5-3.5-3.5-3.5c-2,0-3.5,1.6-3.5,3.5c0,1.9,1.5,3.5,3.5,3.5
			C-591.9,315.3-590.4,313.7-590.4,311.8z"/>
		<path class="st2" d="M-583.8,306.7h2.6l2.8,7.8l2.8-7.8h2.6v10.2h-1.9v-7.6l-2.7,7.6h-1.6l-2.7-7.6v7.6h-1.9V306.7z"/>
		<path class="st2" d="M-567.8,306.7h7.5v10.2h-1.9v-8.4h-3.7v8.4h-1.9V306.7z"/>
		<path class="st2" d="M-551.7,306.7h1.5l4.2,10.2h-2.1l-1-2.6h-3.7l-1,2.6h-2.1L-551.7,306.7z M-549.8,312.4l-1.2-3l-1.2,3H-549.8z
			"/>
		<path class="st2" d="M-541.6,306.7h1.9v4.1h3.7v-4.1h1.9v10.2h-1.9v-4.3h-3.7v4.3h-1.9V306.7z"/>
		<path class="st2" d="M-527,306.7v7.2l4.5-7.2h1.9v10.2h-1.9v-7.2l-4.5,7.2h-1.9v-10.2H-527z"/>
		<path class="st2" d="M-509.1,316.9h-1.9v-4h0l-2.7,4h-2.2l2.8-3.8c-1.6-0.2-2.7-1.3-2.7-3.1c0-1,0.4-3.3,3.8-3.3h2.9V316.9z
			 M-512.1,308.5c-1.5,0-1.9,0.8-1.9,1.5s0.4,1.5,1.9,1.5h1.1v-3H-512.1z"/>
	</g>
	<path class="st3" d="M-710.9,141.9L-744,142l48.8,58.6l0.1-43.3C-703.7,157.1-710.6,150.3-710.9,141.9z"/>
	<path class="st3" d="M-695,125.4c8.8,0,15.9,7.1,15.9,15.9c0,0.2,0,0.3,0,0.5l32.9-0.1L-695,83.1l-0.1,42.3
		C-695,125.4-695,125.4-695,125.4z"/>
	<linearGradient id="SVGID_1_" gradientUnits="userSpaceOnUse" x1="-689.872" y1="151.9495" x2="-668.2606" y2="173.5609">
		<stop  offset="0.2" style="stop-color:#72D3DB;stop-opacity:0"/>
		<stop  offset="1" style="stop-color:#72D3DB"/>
	</linearGradient>
	<path class="st4" d="M-679.1,141.8c-0.2,8.6-7.3,15.5-15.9,15.5c-0.1,0-0.1,0-0.2,0l-0.1,43.3l49-58.9L-679.1,141.8z"/>
	<linearGradient id="SVGID_2_" gradientUnits="userSpaceOnUse" x1="-721.9581" y1="110.0656" x2="-700.5092" y2="131.5146">
		<stop  offset="0" style="stop-color:#72D3DB"/>
		<stop  offset="0.8" style="stop-color:#72D3DB;stop-opacity:0"/>
	</linearGradient>
	<path class="st5" d="M-710.9,141.3c0-8.8,7.1-15.9,15.8-15.9l0.1-42.3l-49,58.9l33.1-0.1C-710.9,141.7-710.9,141.5-710.9,141.3z"/>
	<path class="st3" d="M-708.3,142.2c0-0.1,0-0.3,0-0.4c0-0.1,0-0.3,0-0.4c0-8.3,6.4-15.2,14.6-15.8c-0.4,0-0.8-0.1-1.3-0.1
		c-8.8,0-15.9,7.1-15.9,15.9c0,7.5,5.2,13.7,12.1,15.4C-704.4,154.3-708.3,148.7-708.3,142.2z"/>
	<polygon class="st3" points="-744,142 -743.9,142 -744,141.9 -703.2,93 -712.2,83.1 -765.7,142 -712.4,200.5 -759.5,142 	"/>
	<linearGradient id="SVGID_3_" gradientUnits="userSpaceOnUse" x1="-759.4888" y1="171.2271" x2="-703.463" y2="171.2271">
		<stop  offset="0" style="stop-color:#0EA7D4"/>
		<stop  offset="0.801" style="stop-color:#72D3DB;stop-opacity:0"/>
	</linearGradient>
	<polygon class="st6" points="-743.9,142 -744,142 -759.5,142 -712.4,200.5 -703.5,190.6 -744,141.9 	"/>
	<polygon class="st3" points="-677.8,83.1 -629.6,142 -646.2,142 -646.5,142.1 -687,190.7 -678,200.5 -624.3,141.7 	"/>
	<linearGradient id="SVGID_4_" gradientUnits="userSpaceOnUse" x1="-686.7785" y1="112.5695" x2="-629.5828" y2="112.5695">
		<stop  offset="0.199" style="stop-color:#72D3DB;stop-opacity:0"/>
		<stop  offset="1" style="stop-color:#0EA7D4"/>
	</linearGradient>
	<polygon class="st7" points="-646.5,142.1 -646.2,142 -629.6,142 -677.8,83.1 -686.8,93 -646.2,141.7 	"/>
</g>
<g>
	<g>
		<g>
			<path class="st2" d="M-308.8,205.6v-27.1h27.7v4.6h-21.4v6h12.5v4.6h-12.5v6.7h21.7v5.1H-308.8z"/>
			<path class="st2" d="M-274.1,205.6v-22.2h19c1.7,0,3,0.3,3.8,1c0.8,0.7,1.2,1.8,1.2,3.3v2.7c0,1-0.3,1.9-1,2.5
				c-0.7,0.7-1.6,1.1-2.8,1.2c1.3,0.2,2.3,0.6,3,1.4c0.7,0.7,1,1.7,1,2.9v2.8c0,1.4-0.5,2.5-1.6,3.3c-1.1,0.7-2.7,1.1-4.9,1.1
				H-274.1z M-257.3,187h-11.8v5.3h11.8c0.9,0,1.5-0.1,1.8-0.3c0.3-0.3,0.5-0.7,0.5-1.3v-2.1c0-0.6-0.2-1-0.5-1.3
				C-255.8,187.1-256.4,187-257.3,187z M-257.3,195.9h-11.8v5.6h11.8c1,0,1.7-0.1,2-0.4c0.3-0.3,0.5-0.8,0.5-1.5v-1.7
				c0-0.7-0.2-1.3-0.5-1.6C-255.6,196.1-256.3,195.9-257.3,195.9z"/>
			<path class="st2" d="M-243.5,205.6v-22.2h19c1.7,0,3,0.3,3.9,1c0.8,0.7,1.2,1.8,1.2,3.3v4.9c0,1.5-0.4,2.6-1.2,3.3
				c-0.8,0.7-2.1,1-3.9,1h-13.9v8.6H-243.5z M-226.8,187.2h-11.6v5.9h11.6c0.9,0,1.5-0.1,1.8-0.4c0.3-0.3,0.5-0.7,0.5-1.4V189
				c0-0.7-0.2-1.1-0.5-1.4C-225.3,187.3-225.9,187.2-226.8,187.2z"/>
			<path class="st2" d="M-213.2,188.6c0-2,0.4-3.4,1.1-4.1c0.8-0.7,2.3-1.1,4.4-1.1h16.3c2.2,0,3.6,0.4,4.3,1.1
				c0.8,0.7,1.2,2.1,1.2,4.1v11.7c0,2-0.4,3.4-1.2,4.1c-0.8,0.7-2.2,1.1-4.3,1.1h-16.3c-2.1,0-3.6-0.4-4.4-1.1
				c-0.7-0.7-1.1-2.1-1.1-4.1V188.6z M-208,201.4h17v-14.1h-17V201.4z"/>
			<path class="st2" d="M-181,205.6l12.7-13.7l-12.9-13h8.2l8.5,9.1l8.1-9.1h7.2l-11.7,12.3l14.4,14.4h-8.4l-9.8-10.4l-9,10.4H-181z
				"/>
			<path class="st2" d="M-118.3,205.6v-12c0-0.6,0-1.2,0-1.6c0-0.2,0-0.5,0.1-0.9s0.1-0.8,0.1-1c-0.2,0.2-0.5,0.5-0.9,0.9
				c-0.2,0.2-0.6,0.5-1.1,0.9l-17,13.7h-3.7v-22.2h4.8V195c0,0.5,0,0.9,0,1.2c0,0.3,0,0.6-0.1,1.2c0,0.5-0.1,1-0.1,1.5
				c0.4-0.5,0.8-0.9,1.2-1.2c0.3-0.3,0.8-0.7,1.5-1.2l16.3-13.1h3.7v22.2H-118.3z"/>
			<path class="st2" d="M-105.2,205.6v-22.2h4.1l10.3,13.4l10.1-13.4h4.1v22.2h-4.7v-13.7c0-0.4,0-0.7,0-1c0-0.3,0.1-0.8,0.1-1.4
				c-0.1,0.3-0.3,0.5-0.4,0.8c-0.1,0.2-0.2,0.5-0.3,0.7c-0.3,0.5-0.4,0.8-0.6,0.9l-8.2,11.1h-1l-8.2-11.1c-0.2-0.3-0.5-0.7-0.8-1.2
				c-0.3-0.5-0.5-0.8-0.5-1.1c0,0.5,0.1,0.9,0.1,1.3v1.1v13.7H-105.2z"/>
		</g>
		<g>
			<path class="st2" d="M-308.8,214.3h1.6l1.8,4.8l1.8-4.8h1.6v6.3h-1.2v-4.7l-1.7,4.7h-1l-1.7-4.7v4.7h-1.2V214.3z"/>
			<path class="st2" d="M-297.6,214.3v4.4l2.8-4.4h1.2v6.3h-1.2v-4.4l-2.8,4.4h-1.2v-6.3H-297.6z"/>
			<path class="st2" d="M-290.4,214.3h1.2v2.5h2.3v-2.5h1.2v6.3h-1.2V218h-2.3v2.7h-1.2V214.3z"/>
			<path class="st2" d="M-282.5,214.3h3.4v1.1h-2.2v1.5h2.1v1.1h-2.1v1.5h2.2v1.1h-3.4V214.3z"/>
			<path class="st2" d="M-276,214.3h1.8c2,0,2.3,1.4,2.3,2c0,0.8-0.4,2-2.3,2h-0.6v2.4h-1.2V214.3z M-274.8,217.1h0.7
				c0.3,0,1-0.1,1-0.8c0-0.8-0.7-0.8-1-0.8h-0.7V217.1z"/>
			<path class="st2" d="M-267.6,214.3h0.9l2.6,6.3h-1.3l-0.7-1.6h-2.3l-0.7,1.6h-1.3L-267.6,214.3z M-266.4,217.9l-0.7-1.8l-0.7,1.8
				H-266.4z"/>
			<path class="st2" d="M-255.5,220.7h-1.3l-1.7-4.7l-1.7,4.7h-1.3l2.5-6.3h1L-255.5,220.7z"/>
			<path class="st2" d="M-251.7,214.3v2.4h0.9c1.6,0,2.1,1,2.1,2c0,1.2-0.9,1.9-2.1,1.9h-2.1v-6.3H-251.7z M-251.7,219.5h0.9
				c0.5,0,0.9-0.3,0.9-0.8c0-0.5-0.4-0.8-0.9-0.8h-0.9V219.5z"/>
			<path class="st2" d="M-245.9,214.3h1.2v2.5h2.3v-2.5h1.2v6.3h-1.2V218h-2.3v2.7h-1.2V214.3z"/>
			<path class="st2" d="M-231.7,217.5c0,1.8-1.5,3.3-3.3,3.3s-3.3-1.5-3.3-3.3c0-1.8,1.4-3.3,3.3-3.3S-231.7,215.7-231.7,217.5z
				 M-232.8,217.5c0-1.2-0.9-2.1-2.2-2.1s-2.2,1-2.2,2.1c0,1.2,0.9,2.2,2.2,2.2C-233.7,219.7-232.8,218.7-232.8,217.5z"/>
			<path class="st2" d="M-226.3,217.4v1h-2.4v-1H-226.3z"/>
			<path class="st2" d="M-222.1,217.5l-2.2-3.2h1.4l1.5,2.2l1.5-2.2h1.4l-2.2,3.2l2.2,3.2h-1.4l-1.5-2.2l-1.5,2.2h-1.4L-222.1,217.5
				z"/>
			<path class="st2" d="M-214.6,214.3v4.4l2.8-4.4h1.2v6.3h-1.2v-4.4l-2.8,4.4h-1.2v-6.3H-214.6z"/>
			<path class="st2" d="M-207.4,214.3h1.6l1.8,4.8l1.8-4.8h1.6v6.3h-1.2v-4.7l-1.7,4.7h-1l-1.7-4.7v4.7h-1.2V214.3z"/>
			<path class="st2" d="M-196.3,214.3v4.4l2.8-4.4h1.2v6.3h-1.2v-4.4l-2.8,4.4h-1.2v-6.3H-196.3z"/>
			<path class="st2" d="M-185,220.7h-1.2v-2.4h-1.1c-0.5,0-1.1,0-1.5-0.4c-0.5-0.4-0.6-1-0.6-1.5v-2h1.2v1.9c0,0.2,0,0.5,0.2,0.7
				c0.2,0.2,0.5,0.2,0.7,0.2h1.1v-2.8h1.2V220.7z"/>
			<path class="st2" d="M-181.8,214.3h3.4v1.1h-2.2v1.5h2.1v1.1h-2.1v1.5h2.2v1.1h-3.4V214.3z"/>
			<path class="st2" d="M-170.8,216.2c-0.3-0.4-0.8-0.8-1.6-0.8c-1.3,0-2.1,1-2.1,2.1c0,1.2,0.9,2.2,2.2,2.2c0.6,0,1.1-0.2,1.5-0.7
				h1.4c-0.5,1.1-1.5,1.9-2.9,1.9c-2.2,0-3.3-1.9-3.3-3.3c0-1.4,1.1-3.3,3.3-3.3c1.3,0,2.4,0.7,2.9,1.9H-170.8z"/>
			<path class="st2" d="M-166.7,214.3h1.2v2.7l2-2.7h1.4l-2.4,3.1l2.4,3.2h-1.4l-2-2.8v2.8h-1.2V214.3z"/>
			<path class="st2" d="M-157,214.3h0.9l2.6,6.3h-1.3l-0.7-1.6h-2.3l-0.7,1.6h-1.3L-157,214.3z M-155.8,217.9l-0.7-1.8l-0.7,1.8
				H-155.8z"/>
			<path class="st2" d="M-146.6,220.7h-1.2v-2.5h0l-1.7,2.5h-1.4l1.7-2.3c-1-0.1-1.7-0.8-1.7-1.9c0-0.6,0.2-2.1,2.4-2.1h1.8V220.7z
				 M-148.5,215.5c-0.9,0-1.2,0.5-1.2,0.9s0.2,0.9,1.2,0.9h0.7v-1.9H-148.5z"/>
			<path class="st2" d="M-139.2,214.3h1.2v2.7l2-2.7h1.4l-2.4,3.1l2.4,3.2h-1.4l-2-2.8v2.8h-1.2V214.3z"/>
			<path class="st2" d="M-125.9,217.5c0,1.8-1.5,3.3-3.3,3.3c-1.9,0-3.3-1.5-3.3-3.3c0-1.8,1.4-3.3,3.3-3.3
				C-127.3,214.2-125.9,215.7-125.9,217.5z M-127.1,217.5c0-1.2-0.9-2.1-2.2-2.1s-2.2,1-2.2,2.1c0,1.2,0.9,2.2,2.2,2.2
				C-128,219.7-127.1,218.7-127.1,217.5z"/>
			<path class="st2" d="M-123,214.3h1.6l1.8,4.8l1.8-4.8h1.6v6.3h-1.2v-4.7l-1.7,4.7h-1l-1.7-4.7v4.7h-1.2V214.3z"/>
			<path class="st2" d="M-113,214.3h4.7v6.3h-1.2v-5.2h-2.3v5.2h-1.2V214.3z"/>
			<path class="st2" d="M-103,214.3h0.9l2.6,6.3h-1.3l-0.7-1.6h-2.3l-0.7,1.6h-1.3L-103,214.3z M-101.9,217.9l-0.7-1.8l-0.7,1.8
				H-101.9z"/>
			<path class="st2" d="M-96.8,214.3h1.2v2.5h2.3v-2.5h1.2v6.3h-1.2V218h-2.3v2.7h-1.2V214.3z"/>
			<path class="st2" d="M-87.7,214.3v4.4l2.8-4.4h1.2v6.3h-1.2v-4.4l-2.8,4.4h-1.2v-6.3H-87.7z"/>
			<path class="st2" d="M-76.5,220.7h-1.2v-2.5h0l-1.7,2.5h-1.4l1.7-2.3c-1-0.1-1.7-0.8-1.7-1.9c0-0.6,0.2-2.1,2.4-2.1h1.8V220.7z
				 M-78.4,215.5c-0.9,0-1.2,0.5-1.2,0.9s0.2,0.9,1.2,0.9h0.7v-1.9H-78.4z"/>
		</g>
	</g>
	<g>
		<path class="st2" d="M-385.6,200l-20.5,0.1l30.1,36.2l0.1-26.7C-381.2,209.4-385.5,205.2-385.6,200z"/>
		<path class="st2" d="M-375.8,189.9c5.4,0,9.8,4.4,9.8,9.8c0,0.1,0,0.2,0,0.3l20.3-0.1l-30.1-36.2L-375.8,189.9
			C-375.9,189.9-375.9,189.9-375.8,189.9z"/>
		<linearGradient id="SVGID_5_" gradientUnits="userSpaceOnUse" x1="-372.6891" y1="206.2416" x2="-359.3493" y2="219.5813">
			<stop  offset="0.2" style="stop-color:#72D3DB;stop-opacity:0"/>
			<stop  offset="1" style="stop-color:#72D3DB"/>
		</linearGradient>
		<path class="st8" d="M-366,200c-0.1,5.3-4.5,9.5-9.8,9.5c0,0-0.1,0-0.1,0l-0.1,26.7l30.3-36.3L-366,200z"/>
		<linearGradient id="SVGID_6_" gradientUnits="userSpaceOnUse" x1="-392.4943" y1="180.3886" x2="-379.2549" y2="193.628">
			<stop  offset="0" style="stop-color:#72D3DB"/>
			<stop  offset="0.8" style="stop-color:#72D3DB;stop-opacity:0"/>
		</linearGradient>
		<path class="st9" d="M-385.7,199.7c0-5.4,4.4-9.8,9.8-9.8l0.1-26.1l-30.3,36.3l20.5-0.1C-385.6,199.9-385.7,199.8-385.7,199.7z"/>
		<path class="st2" d="M-384.1,200.2c0-0.1,0-0.2,0-0.3c0-0.1,0-0.2,0-0.3c0-5.2,4-9.4,9-9.8c-0.3,0-0.5,0-0.8,0
			c-5.4,0-9.8,4.4-9.8,9.8c0,4.6,3.2,8.5,7.5,9.5C-381.6,207.7-384.1,204.2-384.1,200.2z"/>
		<polygon class="st2" points="-406.1,200 -406.1,200 -406.1,200 -380.9,169.8 -386.5,163.7 -419.5,200.1 -386.6,236.2 -415.7,200 
					"/>
		<linearGradient id="SVGID_7_" gradientUnits="userSpaceOnUse" x1="-415.6603" y1="218.0843" x2="-381.0781" y2="218.0843">
			<stop  offset="0" style="stop-color:#0EA7D4"/>
			<stop  offset="0.801" style="stop-color:#72D3DB;stop-opacity:0"/>
		</linearGradient>
		<polygon class="st10" points="-406.1,200 -406.1,200 -415.7,200 -386.6,236.2 -381.1,230.1 -406.1,200 		"/>
		<polygon class="st2" points="-365.2,163.7 -335.5,200 -345.7,200 -345.9,200.1 -370.9,230.1 -365.4,236.2 -332.2,199.9 		"/>
		<linearGradient id="SVGID_8_" gradientUnits="userSpaceOnUse" x1="-370.7796" y1="181.884" x2="-335.4753" y2="181.884">
			<stop  offset="0.199" style="stop-color:#72D3DB;stop-opacity:0"/>
			<stop  offset="1" style="stop-color:#0EA7D4"/>
		</linearGradient>
		<polygon class="st11" points="-345.9,200.1 -345.7,200 -335.5,200 -365.2,163.7 -370.8,169.8 -345.7,199.9 		"/>
	</g>
</g>
<g class="st0">
	<g class="st1">
		<g>
			<path class="st2" d="M134.7,211.9h1.7l1.8,5.1l1.8-5.1h1.7v6.7h-1.2v-5l-1.7,5h-1l-1.7-5v5h-1.2V211.9z"/>
			<path class="st2" d="M145.8,211.9h1.2v6.7h-1.2V211.9z"/>
			<path class="st2" d="M151.3,211.9h1.2l3,4.5v-4.5h1.2v6.7h-1.2l-3-4.5v4.5h-1.2V211.9z"/>
			<path class="st2" d="M161.1,211.9h3.6v1.2h-2.3v1.5h2.2v1.2h-2.2v1.5h2.3v1.2h-3.6V211.9z"/>
			<path class="st2" d="M168.8,211.9h1.9c2.2,0,2.5,1.5,2.5,2.1c0,1.1-0.7,2-1.8,2.1l1.9,2.5h-1.5l-1.7-2.5h0v2.5h-1.2V211.9z
				 M170,215.1h0.7c0.3,0,1.2,0,1.2-1c0-1-0.9-1-1.2-1H170V215.1z"/>
			<path class="st2" d="M179.4,211.9h1l2.8,6.7h-1.4l-0.7-1.7h-2.4l-0.7,1.7h-1.4L179.4,211.9z M180.7,215.6l-0.8-1.9l-0.8,1.9
				H180.7z"/>
			<path class="st2" d="M186.8,211.9h1.2v5.5h2v1.2h-3.3V211.9z"/>
			<path class="st2" d="M200.9,211.9h1l2.8,6.7h-1.4l-0.7-1.7h-2.4l-0.7,1.7h-1.4L200.9,211.9z M202.2,215.6l-0.8-1.9l-0.8,1.9
				H202.2z"/>
			<path class="st2" d="M208.3,211.9h1.2l3,4.5v-4.5h1.2v6.7h-1.2l-3-4.5v4.5h-1.2V211.9z"/>
			<path class="st2" d="M218,211.9h1.8c3.1,0,3.6,2.1,3.6,3.4c0,0.7-0.2,3.3-3.5,3.3H218V211.9z M219.8,217.4c0.7,0,2.3-0.1,2.3-2.1
				c0-2.1-1.7-2.2-2.4-2.2h-0.5v4.3H219.8z"/>
			<path class="st2" d="M237.1,213.8c-0.3-0.4-0.9-0.8-1.7-0.8c-1.3,0-2.3,1.1-2.3,2.3c0,1.3,1,2.3,2.3,2.3c0.6,0,1.2-0.2,1.6-0.8
				h1.4c-0.5,1.2-1.6,2-3.1,2c-2.3,0-3.5-2-3.5-3.5c0-1.5,1.1-3.4,3.5-3.4c1.4,0,2.5,0.7,3.1,2H237.1z"/>
			<path class="st2" d="M242.3,211.9h1.2v2.7h2.4v-2.7h1.2v6.7h-1.2v-2.8h-2.4v2.8h-1.2V211.9z"/>
			<path class="st2" d="M251.4,211.9h3.6v1.2h-2.3v1.5h2.2v1.2h-2.2v1.5h2.3v1.2h-3.6V211.9z"/>
			<path class="st2" d="M259.1,211.9h1.7l1.8,5.1l1.8-5.1h1.7v6.7h-1.2v-5l-1.7,5h-1l-1.7-5v5h-1.2V211.9z"/>
			<path class="st2" d="M270.3,211.9h1.2v6.7h-1.2V211.9z"/>
			<path class="st2" d="M280.6,213.8c-0.3-0.4-0.9-0.8-1.7-0.8c-1.3,0-2.3,1.1-2.3,2.3c0,1.3,1,2.3,2.3,2.3c0.6,0,1.2-0.2,1.6-0.8
				h1.4c-0.5,1.2-1.6,2-3.1,2c-2.3,0-3.5-2-3.5-3.5c0-1.5,1.1-3.4,3.5-3.4c1.4,0,2.5,0.7,3.1,2H280.6z"/>
			<path class="st2" d="M287.9,211.9h1l2.8,6.7h-1.4l-0.7-1.7h-2.4l-0.7,1.7h-1.4L287.9,211.9z M289.1,215.6l-0.8-1.9l-0.8,1.9
				H289.1z"/>
			<path class="st2" d="M295.3,211.9h1.2v5.5h2v1.2h-3.3V211.9z"/>
			<path class="st2" d="M312,213.8c-0.3-0.4-0.9-0.8-1.7-0.8c-1.3,0-2.3,1.1-2.3,2.3c0,1.3,1,2.3,2.3,2.3c0.6,0,1.2-0.2,1.6-0.8h1.4
				c-0.5,1.2-1.6,2-3.1,2c-2.3,0-3.5-2-3.5-3.5c0-1.5,1.1-3.4,3.5-3.4c1.4,0,2.5,0.7,3.1,2H312z"/>
			<path class="st2" d="M323.8,215.3c0,1.9-1.5,3.5-3.5,3.5c-2,0-3.5-1.5-3.5-3.5s1.5-3.5,3.5-3.5
				C322.3,211.8,323.8,213.3,323.8,215.3z M322.6,215.2c0-1.2-1-2.3-2.3-2.3c-1.3,0-2.3,1-2.3,2.3c0,1.3,1,2.3,2.3,2.3
				C321.6,217.5,322.6,216.5,322.6,215.2z"/>
			<path class="st2" d="M327.7,211.9h1.7l1.8,5.1l1.8-5.1h1.7v6.7h-1.2v-5l-1.7,5h-1l-1.7-5v5h-1.2V211.9z"/>
			<path class="st2" d="M338.9,211.9h1.9c2.1,0,2.4,1.4,2.4,2.1c0,0.8-0.5,2.1-2.4,2.1h-0.6v2.5h-1.2V211.9z M340.1,214.8h0.7
				c0.3,0,1.1-0.1,1.1-0.9c0-0.8-0.7-0.9-1.1-0.9h-0.7V214.8z"/>
			<path class="st2" d="M348.6,211.9h1l2.8,6.7H351l-0.7-1.7h-2.4l-0.7,1.7h-1.4L348.6,211.9z M349.8,215.6l-0.8-1.9l-0.8,1.9H349.8
				z"/>
			<path class="st2" d="M356,211.9h1.2l3,4.5v-4.5h1.2v6.7h-1.2l-3-4.5v4.5H356V211.9z"/>
			<path class="st2" d="M367.2,216.1l-2.2-4.2h1.4l1.5,3.1l1.5-3.1h1.3l-2.2,4.2v2.5h-1.2V216.1z"/>
		</g>
		<g>
			<path class="st2" d="M159.7,179.1v4.1h-19.2v5.4h11.2v4.1h-11.2v6.2h19.4v4.4h-25.1v-24.3H159.7z"/>
			<path class="st2" d="M170,199.6h13.7v-16.9h4.8v15.8c0,0.9,0,2.8-1.1,3.9c-1,1-2.7,1-4,1h-13c-1.3,0-3,0-4-1
				c-1.1-1.1-1.1-3-1.1-3.9v-15.8h4.8V199.6z"/>
			<path class="st2" d="M212.1,182.7c1,0,2.4,0.1,3.4,0.8c1.2,0.9,1.2,2.3,1.2,3.2v4.9c0,1.6-0.6,2.5-1.1,3c-1,0.8-2.6,0.9-3.5,0.9
				h-2.8l9.5,7.8h-6.9l-8.3-7.8h-4.5v7.8h-4.8v-20.6H212.1z M199.1,186.2v5.8h11c0.3,0,1-0.1,1.3-0.3c0.5-0.4,0.5-1,0.5-1.3v-2.5
				c0-0.3,0-0.9-0.5-1.3c-0.4-0.3-1.2-0.3-1.4-0.3H199.1z"/>
			<path class="st2" d="M222.3,187.6c0-0.9,0-2.8,1.1-3.9c1-1,2.7-1,4-1h15.2c1.3,0,3,0,4,1c1.1,1.1,1.1,3,1.1,3.9v10.9
				c0,0.9,0,2.8-1.1,3.9c-1,1-2.7,1-4,1h-15.2c-1.3,0-3,0-4-1c-1.1-1.1-1.1-3-1.1-3.9V187.6z M242.9,199.6v-13.1h-15.8v13.1H242.9z"
				/>
			<path class="st2" d="M259.1,183.5v15.4h15.2v-5.3l5.6,1.2v2.8c0,1,0,3.3-1.3,4.6c-1.2,1.1-3.1,1.2-4.7,1.2h-14.5
				c-1.6,0-3.5,0-4.7-1.2c-1.3-1.3-1.3-3.5-1.3-4.6v-12.8c0-1,0-3.3,1.3-4.6c1.2-1.1,3.1-1.2,4.7-1.2H274c1.6,0,3.5,0,4.7,1.2
				c1.3,1.3,1.3,3.5,1.3,4.6v2.4l-5.6,0.9v-4.6H259.1z"/>
			<path class="st2" d="M290.6,182.7v8h15v-8h4.8v20.6h-4.8v-8.9h-15v8.9h-4.8v-20.6H290.6z"/>
			<path class="st2" d="M337.5,182.7v3.5h-16.3v4.6h9.5v3.5h-9.5v5.2h16.5v3.8h-21.3v-20.6H337.5z"/>
			<path class="st2" d="M369.6,182.7v20.6h-4.4v-12.8c0-0.3,0-1,0.2-2.2c-0.4,1-1,1.9-1.2,2.2l-7.8,10.3h-1l-7.8-10.4
				c-0.7-1-1-1.5-1.2-2.1l0.1,2.2v12.8h-3.9v-20.6h3.9l9.7,12.5l9.5-12.5H369.6z"/>
		</g>
	</g>
	<g class="st1">
		<path class="st2" d="M62.7,198.6l-18.6,0.1l27.4,32.9l0-24.3C66.7,207.2,62.9,203.4,62.7,198.6z"/>
		<path class="st2" d="M71.6,189.4c4.9,0,8.9,4,8.9,8.9c0,0.1,0,0.2,0,0.3l18.4-0.1l-27.4-32.9L71.6,189.4
			C71.6,189.4,71.6,189.4,71.6,189.4z"/>
		<linearGradient id="SVGID_9_" gradientUnits="userSpaceOnUse" x1="74.4845" y1="204.2912" x2="86.6158" y2="216.4225">
			<stop  offset="0.2" style="stop-color:#72D3DB;stop-opacity:0"/>
			<stop  offset="1" style="stop-color:#72D3DB"/>
		</linearGradient>
		<path class="st12" d="M80.5,198.6c-0.1,4.8-4.1,8.7-8.9,8.7c0,0-0.1,0-0.1,0l0,24.3l27.5-33L80.5,198.6z"/>
		<linearGradient id="SVGID_10_" gradientUnits="userSpaceOnUse" x1="56.4732" y1="180.78" x2="68.5134" y2="192.8202">
			<stop  offset="0" style="stop-color:#72D3DB"/>
			<stop  offset="0.8" style="stop-color:#72D3DB;stop-opacity:0"/>
		</linearGradient>
		<path class="st13" d="M62.7,198.3c0-4.9,4-8.9,8.9-8.9l0-23.7l-27.5,33l18.6-0.1C62.7,198.5,62.7,198.4,62.7,198.3z"/>
		<path class="st2" d="M64.1,198.8c0-0.1,0-0.2,0-0.2c0-0.1,0-0.2,0-0.2c0-4.7,3.6-8.5,8.2-8.9c-0.2,0-0.5,0-0.7,0
			c-4.9,0-8.9,4-8.9,8.9c0,4.2,2.9,7.7,6.8,8.7C66.3,205.6,64.1,202.5,64.1,198.8z"/>
		<polygon class="st2" points="44.1,199 44.1,199 44.1,198.8 67,171.3 62,165.7 31.9,198.7 61.8,231.7 35.4,199 		"/>
		<linearGradient id="SVGID_11_" gradientUnits="userSpaceOnUse" x1="35.4057" y1="215.3499" x2="66.8553" y2="215.3499">
			<stop  offset="0" style="stop-color:#0EA7D4"/>
			<stop  offset="0.801" style="stop-color:#72D3DB;stop-opacity:0"/>
		</linearGradient>
		<polygon class="st14" points="44.1,199 44.1,199 35.4,199 61.8,231.7 66.9,226.3 44.1,199 		"/>
		<polygon class="st2" points="81.3,165.8 108.3,199 99,199 98.8,198.9 76.1,226.1 81.1,231.6 111.3,198.6 		"/>
		<linearGradient id="SVGID_12_" gradientUnits="userSpaceOnUse" x1="76.221" y1="182.3904" x2="108.3272" y2="182.3904">
			<stop  offset="0.199" style="stop-color:#72D3DB;stop-opacity:0"/>
			<stop  offset="1" style="stop-color:#0EA7D4"/>
		</linearGradient>
		<polygon class="st15" points="98.8,198.9 99,199 108.3,199 81.3,165.8 76.2,171.2 99,198.6 		"/>
	</g>
</g>
</svg>
