<?xml version="1.0" encoding="utf-8"?>
<!-- Generator: Adobe Illustrator 19.1.0, SVG Export Plug-In . SVG Version: 6.00 Build 0)  -->
<svg version="1.0" id="Layer_1" xmlns="http://www.w3.org/2000/svg" xmlns:xlink="http://www.w3.org/1999/xlink" x="0px" y="0px"
	 viewBox="0 0 400 400" style="enable-background:new 0 0 400 400;" xml:space="preserve">
<style type="text/css">
	.st0{fill:#53555A;}
	.st1{fill:url(#SVGID_1_);}
	.st2{fill:url(#SVGID_2_);}
	.st3{fill:url(#SVGID_3_);}
	.st4{fill:url(#SVGID_4_);}
	.st5{display:none;}
	.st6{display:inline;}
	.st7{fill:url(#SVGID_5_);}
	.st8{fill:url(#SVGID_6_);}
	.st9{fill:url(#SVGID_7_);}
	.st10{fill:url(#SVGID_8_);}
	.st11{fill:url(#SVGID_9_);}
	.st12{fill:url(#SVGID_10_);}
	.st13{fill:url(#SVGID_11_);}
	.st14{fill:url(#SVGID_12_);}
</style>
<g>
	<g>
		<path class="st0" d="M13.1,292.5V249h44.6v7.4H23.2v9.7h20.1v7.4H23.2v10.8h34.9v8.2H13.1z"/>
		<path class="st0" d="M68.9,292.5v-35.7h30.6c2.8,0,4.9,0.6,6.2,1.7c1.2,1.1,1.9,2.9,1.9,5.3v4.4c0,1.7-0.5,3-1.6,4.1
			c-1.1,1.1-2.6,1.7-4.6,1.9c2.1,0.3,3.7,1,4.8,2.2c1.1,1.2,1.7,2.7,1.7,4.6v4.6c0,2.3-0.9,4.1-2.6,5.3c-1.7,1.1-4.3,1.7-7.9,1.7
			H68.9z M96,262.6H77v8.5h19c1.4,0,2.4-0.2,3-0.5c0.6-0.4,0.8-1.1,0.8-2v-3.4c0-0.9-0.3-1.6-0.8-2C98.4,262.8,97.4,262.6,96,262.6z
			 M96,277H77v9.1h19c1.6,0,2.7-0.2,3.2-0.7c0.6-0.5,0.8-1.3,0.8-2.5v-2.7c0-1.2-0.3-2-0.8-2.5C98.6,277.3,97.6,277,96,277z"/>
		<path class="st0" d="M118.2,292.5v-35.7h30.5c2.8,0,4.9,0.5,6.2,1.6c1.2,1.1,1.9,2.9,1.9,5.3v8c0,2.4-0.6,4.2-1.9,5.3
			c-1.3,1.1-3.4,1.7-6.2,1.7h-22.4v13.9H118.2z M145,263h-18.7v9.5H145c1.5,0,2.4-0.2,3-0.6c0.5-0.4,0.8-1.2,0.8-2.2v-3.8
			c0-1.1-0.3-1.8-0.8-2.2C147.5,263.2,146.5,263,145,263z"/>
		<path class="st0" d="M167,265.3c0-3.2,0.6-5.4,1.8-6.6c1.3-1.2,3.6-1.8,7.1-1.8h26.3c3.5,0,5.8,0.6,7,1.8c1.3,1.2,1.9,3.4,1.9,6.6
			v18.8c0,3.3-0.6,5.5-1.9,6.7c-1.2,1.2-3.6,1.8-7,1.8h-26.3c-3.4,0-5.8-0.6-7.1-1.8c-1.2-1.2-1.8-3.4-1.8-6.7V265.3z M175.3,285.8
			h27.4v-22.7h-27.4V285.8z"/>
		<path class="st0" d="M218.7,292.5l20.4-22.1l-20.8-20.9h13.2l13.8,14.6l13.1-14.6H270l-18.8,19.8l23.2,23.3h-13.6L245,275.9
			l-14.5,16.7H218.7z"/>
		<path class="st0" d="M319.8,292.5v-19.3c0-1,0-1.9,0.1-2.6c0-0.3,0.1-0.8,0.1-1.5c0.1-0.7,0.1-1.2,0.1-1.6
			c-0.3,0.4-0.8,0.8-1.4,1.4c-0.4,0.4-0.9,0.9-1.7,1.5l-27.4,22.1h-5.9v-35.7h7.8v18.8c0,0.7,0,1.4-0.1,1.9c0,0.4-0.1,1-0.1,1.9
			c-0.1,0.8-0.1,1.6-0.2,2.4c0.7-0.8,1.3-1.4,1.9-1.9c0.5-0.5,1.3-1.1,2.4-1.9l26.3-21.1h5.9v35.7H319.8z"/>
		<path class="st0" d="M340.7,292.5v-35.7h6.6l16.5,21.6l16.2-21.6h6.5v35.7H379v-22.1c0-0.6,0-1.2,0.1-1.6c0.1-0.6,0.1-1.3,0.2-2.2
			c-0.2,0.4-0.4,0.8-0.6,1.2c-0.2,0.4-0.4,0.7-0.5,1.1c-0.4,0.8-0.7,1.3-0.9,1.5L364,288.3h-1.6l-13.2-17.9
			c-0.4-0.5-0.8-1.1-1.2-1.9c-0.5-0.7-0.7-1.3-0.9-1.7c0.1,0.8,0.1,1.4,0.2,2.1v1.7v22.1H340.7z"/>
	</g>
	<g>
		<path class="st0" d="M13.1,306.7h2.6l2.8,7.8l2.8-7.8h2.6v10.2H22v-7.6l-2.7,7.6h-1.6l-2.7-7.6v7.6h-1.9V306.7z"/>
		<path class="st0" d="M31.1,306.7v7.2l4.5-7.2h1.9v10.2h-1.9v-7.2l-4.5,7.2h-1.9v-10.2H31.1z"/>
		<path class="st0" d="M42.7,306.7h1.9v4.1h3.7v-4.1h1.9v10.2h-1.9v-4.3h-3.7v4.3h-1.9V306.7z"/>
		<path class="st0" d="M55.4,306.7h5.5v1.8h-3.6v2.4h3.4v1.8h-3.4v2.3h3.6v1.8h-5.5V306.7z"/>
		<path class="st0" d="M65.9,306.7h2.9c3.3,0,3.6,2.2,3.6,3.2c0,1.3-0.7,3.2-3.6,3.2h-1v3.9h-1.9V306.7z M67.8,311.2h1.1
			c0.5,0,1.6-0.1,1.6-1.3c0-1.3-1.1-1.3-1.6-1.3h-1.1V311.2z"/>
		<path class="st0" d="M79.4,306.7h1.5l4.2,10.2h-2.1l-1-2.6h-3.7l-1,2.6h-2.1L79.4,306.7z M81.3,312.4l-1.2-3l-1.2,3H81.3z"/>
		<path class="st0" d="M98.8,316.9h-2.1l-2.8-7.6l-2.8,7.6h-2.1l4-10.2h1.7L98.8,316.9z"/>
		<path class="st0" d="M105,306.7v3.9h1.5c2.5,0,3.4,1.6,3.4,3.1c0,1.9-1.4,3.1-3.4,3.1h-3.4v-10.2H105z M105,315h1.5
			c0.9,0,1.5-0.5,1.5-1.3c0-0.8-0.6-1.3-1.5-1.3H105V315z"/>
		<path class="st0" d="M114.4,306.7h1.9v4.1h3.7v-4.1h1.9v10.2H120v-4.3h-3.7v4.3h-1.9V306.7z"/>
		<path class="st0" d="M137.2,311.8c0,2.9-2.3,5.3-5.4,5.3c-3,0-5.4-2.3-5.4-5.3c0-2.9,2.3-5.3,5.4-5.3S137.2,308.9,137.2,311.8z
			 M135.4,311.8c0-1.9-1.5-3.5-3.5-3.5s-3.5,1.6-3.5,3.5c0,1.9,1.5,3.5,3.5,3.5C133.9,315.3,135.4,313.7,135.4,311.8z"/>
		<path class="st0" d="M145.9,311.7v1.6h-3.8v-1.6H145.9z"/>
		<path class="st0" d="M152.7,311.8l-3.5-5.1h2.2l2.4,3.5l2.4-3.5h2.2l-3.5,5.1l3.5,5.1h-2.2l-2.4-3.5l-2.4,3.5h-2.2L152.7,311.8z"
			/>
		<path class="st0" d="M164.6,306.7v7.2l4.5-7.2h1.9v10.2h-1.9v-7.2l-4.5,7.2h-1.9v-10.2H164.6z"/>
		<path class="st0" d="M176.3,306.7h2.6l2.8,7.8l2.8-7.8h2.6v10.2h-1.9v-7.6l-2.7,7.6h-1.6l-2.7-7.6v7.6h-1.9V306.7z"/>
		<path class="st0" d="M194.2,306.7v7.2l4.5-7.2h1.9v10.2h-1.9v-7.2l-4.5,7.2h-1.9v-10.2H194.2z"/>
		<path class="st0" d="M212.3,316.9h-1.9V313h-1.7c-0.8,0-1.8-0.1-2.5-0.6c-0.8-0.7-0.9-1.7-0.9-2.4v-3.3h1.9v3c0,0.3,0,0.8,0.4,1.2
			c0.3,0.3,0.8,0.3,1.1,0.3h1.7v-4.5h1.9V316.9z"/>
		<path class="st0" d="M217.5,306.7h5.5v1.8h-3.6v2.4h3.4v1.8h-3.4v2.3h3.6v1.8h-5.5V306.7z"/>
		<path class="st0" d="M235.2,309.6c-0.5-0.6-1.3-1.3-2.6-1.3c-2,0-3.5,1.7-3.5,3.4c0,1.9,1.5,3.5,3.5,3.5c0.9,0,1.8-0.4,2.5-1.2
			h2.2c-0.8,1.8-2.5,3-4.7,3c-3.6,0-5.3-3-5.3-5.3c0-2.3,1.7-5.3,5.3-5.3c2.1,0,3.9,1.1,4.7,3.1H235.2z"/>
		<path class="st0" d="M241.9,306.7h1.9v4.4l3.2-4.4h2.3l-3.8,5l3.8,5.2h-2.3l-3.2-4.5v4.5h-1.9V306.7z"/>
		<path class="st0" d="M257.4,306.7h1.5l4.2,10.2h-2.1l-1-2.6h-3.7l-1,2.6h-2.1L257.4,306.7z M259.4,312.4l-1.2-3l-1.2,3H259.4z"/>
		<path class="st0" d="M274.2,316.9h-1.9v-4h0l-2.7,4h-2.2l2.8-3.8c-1.6-0.2-2.7-1.3-2.7-3.1c0-1,0.4-3.3,3.8-3.3h2.9V316.9z
			 M271.2,308.5c-1.5,0-1.9,0.8-1.9,1.5s0.4,1.5,1.9,1.5h1.1v-3H271.2z"/>
		<path class="st0" d="M286.1,306.7h1.9v4.4l3.2-4.4h2.3l-3.8,5l3.8,5.2h-2.3l-3.2-4.5v4.5h-1.9V306.7z"/>
		<path class="st0" d="M307.5,311.8c0,2.9-2.3,5.3-5.4,5.3s-5.4-2.3-5.4-5.3c0-2.9,2.3-5.3,5.4-5.3
			C305.2,306.5,307.5,308.9,307.5,311.8z M305.6,311.8c0-1.9-1.5-3.5-3.5-3.5c-2,0-3.5,1.6-3.5,3.5c0,1.9,1.5,3.5,3.5,3.5
			C304.1,315.3,305.6,313.7,305.6,311.8z"/>
		<path class="st0" d="M312.2,306.7h2.6l2.8,7.8l2.8-7.8h2.6v10.2h-1.9v-7.6l-2.7,7.6h-1.6l-2.7-7.6v7.6h-1.9V306.7z"/>
		<path class="st0" d="M328.2,306.7h7.5v10.2h-1.9v-8.4h-3.7v8.4h-1.9V306.7z"/>
		<path class="st0" d="M344.3,306.7h1.5l4.2,10.2h-2.1l-1-2.6h-3.7l-1,2.6H340L344.3,306.7z M346.2,312.4l-1.2-3l-1.2,3H346.2z"/>
		<path class="st0" d="M354.4,306.7h1.9v4.1h3.7v-4.1h1.9v10.2H360v-4.3h-3.7v4.3h-1.9V306.7z"/>
		<path class="st0" d="M369,306.7v7.2l4.5-7.2h1.9v10.2h-1.9v-7.2l-4.5,7.2h-1.9v-10.2H369z"/>
		<path class="st0" d="M386.9,316.9h-1.9v-4h0l-2.7,4h-2.2l2.8-3.8c-1.6-0.2-2.7-1.3-2.7-3.1c0-1,0.4-3.3,3.8-3.3h2.9V316.9z
			 M383.9,308.5c-1.5,0-1.9,0.8-1.9,1.5s0.4,1.5,1.9,1.5h1.1v-3H383.9z"/>
	</g>
	<path class="st0" d="M185.1,141.9L152,142l48.8,58.6l0.1-43.3C192.3,157.1,185.4,150.3,185.1,141.9z"/>
	<path class="st0" d="M201,125.4c8.8,0,15.9,7.1,15.9,15.9c0,0.2,0,0.3,0,0.5l32.9-0.1L201,83.1l-0.1,42.3
		C201,125.4,201,125.4,201,125.4z"/>
	<linearGradient id="SVGID_1_" gradientUnits="userSpaceOnUse" x1="206.128" y1="151.9495" x2="227.7394" y2="173.5609">
		<stop  offset="0.2" style="stop-color:#72D3DB;stop-opacity:0"/>
		<stop  offset="1" style="stop-color:#72D3DB"/>
	</linearGradient>
	<path class="st1" d="M216.9,141.8c-0.2,8.6-7.3,15.5-15.9,15.5c-0.1,0-0.1,0-0.2,0l-0.1,43.3l49-58.9L216.9,141.8z"/>
	<linearGradient id="SVGID_2_" gradientUnits="userSpaceOnUse" x1="174.0419" y1="110.0656" x2="195.4908" y2="131.5146">
		<stop  offset="0" style="stop-color:#72D3DB"/>
		<stop  offset="0.8" style="stop-color:#72D3DB;stop-opacity:0"/>
	</linearGradient>
	<path class="st2" d="M185.1,141.3c0-8.8,7.1-15.9,15.8-15.9l0.1-42.3L152,142l33.1-0.1C185.1,141.7,185.1,141.5,185.1,141.3z"/>
	<path class="st0" d="M187.7,142.2c0-0.1,0-0.3,0-0.4c0-0.1,0-0.3,0-0.4c0-8.3,6.4-15.2,14.6-15.8c-0.4,0-0.8-0.1-1.3-0.1
		c-8.8,0-15.9,7.1-15.9,15.9c0,7.5,5.2,13.7,12.1,15.4C191.6,154.3,187.7,148.7,187.7,142.2z"/>
	<polygon class="st0" points="152,142 152.1,142 152,141.9 192.8,93 183.8,83.1 130.3,142 183.6,200.5 136.5,142 	"/>
	<linearGradient id="SVGID_3_" gradientUnits="userSpaceOnUse" x1="136.5112" y1="171.2271" x2="192.537" y2="171.2271">
		<stop  offset="0" style="stop-color:#0EA7D4"/>
		<stop  offset="0.801" style="stop-color:#72D3DB;stop-opacity:0"/>
	</linearGradient>
	<polygon class="st3" points="152.1,142 152,142 136.5,142 183.6,200.5 192.5,190.6 152,141.9 	"/>
	<polygon class="st0" points="218.2,83.1 266.4,142 249.8,142 249.5,142.1 209,190.7 218,200.5 271.7,141.7 	"/>
	<linearGradient id="SVGID_4_" gradientUnits="userSpaceOnUse" x1="209.2215" y1="112.5695" x2="266.4171" y2="112.5695">
		<stop  offset="0.199" style="stop-color:#72D3DB;stop-opacity:0"/>
		<stop  offset="1" style="stop-color:#0EA7D4"/>
	</linearGradient>
	<polygon class="st4" points="249.5,142.1 249.8,142 266.4,142 218.2,83.1 209.2,93 249.8,141.7 	"/>
</g>
<g class="st5">
	<g class="st6">
		<g>
			<path class="st0" d="M587.2,205.6v-27.1h27.7v4.6h-21.4v6H606v4.6h-12.5v6.7h21.7v5.1H587.2z"/>
			<path class="st0" d="M621.9,205.6v-22.2h19c1.7,0,3,0.3,3.8,1c0.8,0.7,1.2,1.8,1.2,3.3v2.7c0,1-0.3,1.9-1,2.5
				c-0.7,0.7-1.6,1.1-2.8,1.2c1.3,0.2,2.3,0.6,3,1.4c0.7,0.7,1,1.7,1,2.9v2.8c0,1.4-0.5,2.5-1.6,3.3c-1.1,0.7-2.7,1.1-4.9,1.1H621.9
				z M638.7,187h-11.8v5.3h11.8c0.9,0,1.5-0.1,1.8-0.3c0.3-0.3,0.5-0.7,0.5-1.3v-2.1c0-0.6-0.2-1-0.5-1.3
				C640.2,187.1,639.6,187,638.7,187z M638.7,195.9h-11.8v5.6h11.8c1,0,1.7-0.1,2-0.4c0.3-0.3,0.5-0.8,0.5-1.5v-1.7
				c0-0.7-0.2-1.3-0.5-1.6C640.4,196.1,639.7,195.9,638.7,195.9z"/>
			<path class="st0" d="M652.5,205.6v-22.2h19c1.7,0,3,0.3,3.9,1c0.8,0.7,1.2,1.8,1.2,3.3v4.9c0,1.5-0.4,2.6-1.2,3.3
				c-0.8,0.7-2.1,1-3.9,1h-13.9v8.6H652.5z M669.2,187.2h-11.6v5.9h11.6c0.9,0,1.5-0.1,1.8-0.4c0.3-0.3,0.5-0.7,0.5-1.4V189
				c0-0.7-0.2-1.1-0.5-1.4C670.7,187.3,670.1,187.2,669.2,187.2z"/>
			<path class="st0" d="M682.8,188.6c0-2,0.4-3.4,1.1-4.1c0.8-0.7,2.3-1.1,4.4-1.1h16.3c2.2,0,3.6,0.4,4.3,1.1
				c0.8,0.7,1.2,2.1,1.2,4.1v11.7c0,2-0.4,3.4-1.2,4.1c-0.8,0.7-2.2,1.1-4.3,1.1h-16.3c-2.1,0-3.6-0.4-4.4-1.1
				c-0.7-0.7-1.1-2.1-1.1-4.1V188.6z M688,201.4h17v-14.1h-17V201.4z"/>
			<path class="st0" d="M715,205.6l12.7-13.7l-12.9-13h8.2l8.5,9.1l8.1-9.1h7.2l-11.7,12.3l14.4,14.4h-8.4l-9.8-10.4l-9,10.4H715z"
				/>
			<path class="st0" d="M777.7,205.6v-12c0-0.6,0-1.2,0-1.6c0-0.2,0-0.5,0.1-0.9s0.1-0.8,0.1-1c-0.2,0.2-0.5,0.5-0.9,0.9
				c-0.2,0.2-0.6,0.5-1.1,0.9l-17,13.7h-3.7v-22.2h4.8V195c0,0.5,0,0.9,0,1.2c0,0.3,0,0.6-0.1,1.2c0,0.5-0.1,1-0.1,1.5
				c0.4-0.5,0.8-0.9,1.2-1.2c0.3-0.3,0.8-0.7,1.5-1.2l16.3-13.1h3.7v22.2H777.7z"/>
			<path class="st0" d="M790.8,205.6v-22.2h4.1l10.3,13.4l10.1-13.4h4.1v22.2h-4.7v-13.7c0-0.4,0-0.7,0-1c0-0.3,0.1-0.8,0.1-1.4
				c-0.1,0.3-0.3,0.5-0.4,0.8c-0.1,0.2-0.2,0.5-0.3,0.7c-0.3,0.5-0.4,0.8-0.6,0.9l-8.2,11.1h-1l-8.2-11.1c-0.2-0.3-0.5-0.7-0.8-1.2
				c-0.3-0.5-0.5-0.8-0.5-1.1c0,0.5,0.1,0.9,0.1,1.3v1.1v13.7H790.8z"/>
		</g>
		<g>
			<path class="st0" d="M587.2,214.3h1.6l1.8,4.8l1.8-4.8h1.6v6.3h-1.2v-4.7l-1.7,4.7h-1l-1.7-4.7v4.7h-1.2V214.3z"/>
			<path class="st0" d="M598.4,214.3v4.4l2.8-4.4h1.2v6.3h-1.2v-4.4l-2.8,4.4h-1.2v-6.3H598.4z"/>
			<path class="st0" d="M605.6,214.3h1.2v2.5h2.3v-2.5h1.2v6.3h-1.2V218h-2.3v2.7h-1.2V214.3z"/>
			<path class="st0" d="M613.5,214.3h3.4v1.1h-2.2v1.5h2.1v1.1h-2.1v1.5h2.2v1.1h-3.4V214.3z"/>
			<path class="st0" d="M620,214.3h1.8c2,0,2.3,1.4,2.3,2c0,0.8-0.4,2-2.3,2h-0.6v2.4H620V214.3z M621.2,217.1h0.7
				c0.3,0,1-0.1,1-0.8c0-0.8-0.7-0.8-1-0.8h-0.7V217.1z"/>
			<path class="st0" d="M628.4,214.3h0.9l2.6,6.3h-1.3L630,219h-2.3l-0.7,1.6h-1.3L628.4,214.3z M629.6,217.9l-0.7-1.8l-0.7,1.8
				H629.6z"/>
			<path class="st0" d="M640.5,220.7h-1.3l-1.7-4.7l-1.7,4.7h-1.3l2.5-6.3h1L640.5,220.7z"/>
			<path class="st0" d="M644.3,214.3v2.4h0.9c1.6,0,2.1,1,2.1,2c0,1.2-0.9,1.9-2.1,1.9h-2.1v-6.3H644.3z M644.3,219.5h0.9
				c0.5,0,0.9-0.3,0.9-0.8c0-0.5-0.4-0.8-0.9-0.8h-0.9V219.5z"/>
			<path class="st0" d="M650.1,214.3h1.2v2.5h2.3v-2.5h1.2v6.3h-1.2V218h-2.3v2.7h-1.2V214.3z"/>
			<path class="st0" d="M664.3,217.5c0,1.8-1.5,3.3-3.3,3.3c-1.9,0-3.3-1.5-3.3-3.3c0-1.8,1.4-3.3,3.3-3.3
				C662.9,214.2,664.3,215.7,664.3,217.5z M663.2,217.5c0-1.2-0.9-2.1-2.2-2.1c-1.2,0-2.2,1-2.2,2.1c0,1.2,0.9,2.2,2.2,2.2
				C662.3,219.7,663.2,218.7,663.2,217.5z"/>
			<path class="st0" d="M669.7,217.4v1h-2.4v-1H669.7z"/>
			<path class="st0" d="M673.9,217.5l-2.2-3.2h1.4l1.5,2.2l1.5-2.2h1.4l-2.2,3.2l2.2,3.2h-1.4l-1.5-2.2l-1.5,2.2h-1.4L673.9,217.5z"
				/>
			<path class="st0" d="M681.4,214.3v4.4l2.8-4.4h1.2v6.3h-1.2v-4.4l-2.8,4.4h-1.2v-6.3H681.4z"/>
			<path class="st0" d="M688.6,214.3h1.6l1.8,4.8l1.8-4.8h1.6v6.3h-1.2v-4.7l-1.7,4.7h-1l-1.7-4.7v4.7h-1.2V214.3z"/>
			<path class="st0" d="M699.7,214.3v4.4l2.8-4.4h1.2v6.3h-1.2v-4.4l-2.8,4.4h-1.2v-6.3H699.7z"/>
			<path class="st0" d="M711,220.7h-1.2v-2.4h-1.1c-0.5,0-1.1,0-1.5-0.4c-0.5-0.4-0.6-1-0.6-1.5v-2h1.2v1.9c0,0.2,0,0.5,0.2,0.7
				c0.2,0.2,0.5,0.2,0.7,0.2h1.1v-2.8h1.2V220.7z"/>
			<path class="st0" d="M714.2,214.3h3.4v1.1h-2.2v1.5h2.1v1.1h-2.1v1.5h2.2v1.1h-3.4V214.3z"/>
			<path class="st0" d="M725.2,216.2c-0.3-0.4-0.8-0.8-1.6-0.8c-1.3,0-2.1,1-2.1,2.1c0,1.2,0.9,2.2,2.2,2.2c0.6,0,1.1-0.2,1.5-0.7
				h1.4c-0.5,1.1-1.5,1.9-2.9,1.9c-2.2,0-3.3-1.9-3.3-3.3c0-1.4,1.1-3.3,3.3-3.3c1.3,0,2.4,0.7,2.9,1.9H725.2z"/>
			<path class="st0" d="M729.3,214.3h1.2v2.7l2-2.7h1.4l-2.4,3.1l2.4,3.2h-1.4l-2-2.8v2.8h-1.2V214.3z"/>
			<path class="st0" d="M739,214.3h0.9l2.6,6.3h-1.3l-0.7-1.6h-2.3l-0.7,1.6h-1.3L739,214.3z M740.2,217.9l-0.7-1.8l-0.7,1.8H740.2z
				"/>
			<path class="st0" d="M749.4,220.7h-1.2v-2.5h0l-1.7,2.5h-1.4l1.7-2.3c-1-0.1-1.7-0.8-1.7-1.9c0-0.6,0.2-2.1,2.4-2.1h1.8V220.7z
				 M747.5,215.5c-0.9,0-1.2,0.5-1.2,0.9s0.2,0.9,1.2,0.9h0.7v-1.9H747.5z"/>
			<path class="st0" d="M756.8,214.3h1.2v2.7l2-2.7h1.4l-2.4,3.1l2.4,3.2H760l-2-2.8v2.8h-1.2V214.3z"/>
			<path class="st0" d="M770.1,217.5c0,1.8-1.5,3.3-3.3,3.3s-3.3-1.5-3.3-3.3c0-1.8,1.4-3.3,3.3-3.3
				C768.7,214.2,770.1,215.7,770.1,217.5z M768.9,217.5c0-1.2-0.9-2.1-2.2-2.1c-1.2,0-2.2,1-2.2,2.1c0,1.2,0.9,2.2,2.2,2.2
				C768,219.7,768.9,218.7,768.9,217.5z"/>
			<path class="st0" d="M773,214.3h1.6l1.8,4.8l1.8-4.8h1.6v6.3h-1.2v-4.7l-1.7,4.7h-1l-1.7-4.7v4.7H773V214.3z"/>
			<path class="st0" d="M783,214.3h4.7v6.3h-1.2v-5.2h-2.3v5.2H783V214.3z"/>
			<path class="st0" d="M793,214.3h0.9l2.6,6.3h-1.3l-0.7-1.6h-2.3l-0.7,1.6h-1.3L793,214.3z M794.1,217.9l-0.7-1.8l-0.7,1.8H794.1z
				"/>
			<path class="st0" d="M799.2,214.3h1.2v2.5h2.3v-2.5h1.2v6.3h-1.2V218h-2.3v2.7h-1.2V214.3z"/>
			<path class="st0" d="M808.3,214.3v4.4l2.8-4.4h1.2v6.3h-1.2v-4.4l-2.8,4.4h-1.2v-6.3H808.3z"/>
			<path class="st0" d="M819.5,220.7h-1.2v-2.5h0l-1.7,2.5h-1.4l1.7-2.3c-1-0.1-1.7-0.8-1.7-1.9c0-0.6,0.2-2.1,2.4-2.1h1.8V220.7z
				 M817.6,215.5c-0.9,0-1.2,0.5-1.2,0.9s0.2,0.9,1.2,0.9h0.7v-1.9H817.6z"/>
		</g>
	</g>
	<g class="st6">
		<path class="st0" d="M510.4,200l-20.5,0.1l30.1,36.2l0.1-26.7C514.8,209.4,510.5,205.2,510.4,200z"/>
		<path class="st0" d="M520.2,189.9c5.4,0,9.8,4.4,9.8,9.8c0,0.1,0,0.2,0,0.3l20.3-0.1l-30.1-36.2L520.2,189.9
			C520.1,189.9,520.1,189.9,520.2,189.9z"/>
		<linearGradient id="SVGID_5_" gradientUnits="userSpaceOnUse" x1="523.3109" y1="206.2416" x2="536.6506" y2="219.5813">
			<stop  offset="0.2" style="stop-color:#72D3DB;stop-opacity:0"/>
			<stop  offset="1" style="stop-color:#72D3DB"/>
		</linearGradient>
		<path class="st7" d="M530,200c-0.1,5.3-4.5,9.5-9.8,9.5c0,0-0.1,0-0.1,0l-0.1,26.7l30.3-36.3L530,200z"/>
		<linearGradient id="SVGID_6_" gradientUnits="userSpaceOnUse" x1="503.5057" y1="180.3886" x2="516.7451" y2="193.628">
			<stop  offset="0" style="stop-color:#72D3DB"/>
			<stop  offset="0.8" style="stop-color:#72D3DB;stop-opacity:0"/>
		</linearGradient>
		<path class="st8" d="M510.3,199.7c0-5.4,4.4-9.8,9.8-9.8l0.1-26.1l-30.3,36.3l20.5-0.1C510.4,199.9,510.3,199.8,510.3,199.7z"/>
		<path class="st0" d="M511.9,200.2c0-0.1,0-0.2,0-0.3c0-0.1,0-0.2,0-0.3c0-5.2,4-9.4,9-9.8c-0.3,0-0.5,0-0.8,0
			c-5.4,0-9.8,4.4-9.8,9.8c0,4.6,3.2,8.5,7.5,9.5C514.4,207.7,511.9,204.2,511.9,200.2z"/>
		<polygon class="st0" points="489.9,200 489.9,200 489.9,200 515.1,169.8 509.5,163.7 476.5,200.1 509.4,236.2 480.3,200 		"/>
		<linearGradient id="SVGID_7_" gradientUnits="userSpaceOnUse" x1="480.3397" y1="218.0843" x2="514.9219" y2="218.0843">
			<stop  offset="0" style="stop-color:#0EA7D4"/>
			<stop  offset="0.801" style="stop-color:#72D3DB;stop-opacity:0"/>
		</linearGradient>
		<polygon class="st9" points="489.9,200 489.9,200 480.3,200 509.4,236.2 514.9,230.1 489.9,200 		"/>
		<polygon class="st0" points="530.8,163.7 560.5,200 550.3,200 550.1,200.1 525.1,230.1 530.6,236.2 563.8,199.9 		"/>
		<linearGradient id="SVGID_8_" gradientUnits="userSpaceOnUse" x1="525.2204" y1="181.884" x2="560.5247" y2="181.884">
			<stop  offset="0.199" style="stop-color:#72D3DB;stop-opacity:0"/>
			<stop  offset="1" style="stop-color:#0EA7D4"/>
		</linearGradient>
		<polygon class="st10" points="550.1,200.1 550.3,200 560.5,200 530.8,163.7 525.2,169.8 550.3,199.9 		"/>
	</g>
</g>
<g class="st5">
	<g class="st6">
		<g>
			<path class="st0" d="M1030.7,211.9h1.7l1.8,5.1l1.8-5.1h1.7v6.7h-1.2v-5l-1.7,5h-1l-1.7-5v5h-1.2V211.9z"/>
			<path class="st0" d="M1041.8,211.9h1.2v6.7h-1.2V211.9z"/>
			<path class="st0" d="M1047.3,211.9h1.2l3,4.5v-4.5h1.2v6.7h-1.2l-3-4.5v4.5h-1.2V211.9z"/>
			<path class="st0" d="M1057.1,211.9h3.6v1.2h-2.3v1.5h2.2v1.2h-2.2v1.5h2.3v1.2h-3.6V211.9z"/>
			<path class="st0" d="M1064.8,211.9h1.9c2.2,0,2.5,1.5,2.5,2.1c0,1.1-0.7,2-1.8,2.1l1.9,2.5h-1.5l-1.7-2.5h0v2.5h-1.2V211.9z
				 M1066,215.1h0.7c0.3,0,1.2,0,1.2-1c0-1-0.9-1-1.2-1h-0.7V215.1z"/>
			<path class="st0" d="M1075.4,211.9h1l2.8,6.7h-1.4l-0.7-1.7h-2.4l-0.7,1.7h-1.4L1075.4,211.9z M1076.7,215.6l-0.8-1.9l-0.8,1.9
				H1076.7z"/>
			<path class="st0" d="M1082.8,211.9h1.2v5.5h2v1.2h-3.3V211.9z"/>
			<path class="st0" d="M1096.9,211.9h1l2.8,6.7h-1.4l-0.7-1.7h-2.4l-0.7,1.7h-1.4L1096.9,211.9z M1098.2,215.6l-0.8-1.9l-0.8,1.9
				H1098.2z"/>
			<path class="st0" d="M1104.3,211.9h1.2l3,4.5v-4.5h1.2v6.7h-1.2l-3-4.5v4.5h-1.2V211.9z"/>
			<path class="st0" d="M1114,211.9h1.8c3.1,0,3.6,2.1,3.6,3.4c0,0.7-0.2,3.3-3.5,3.3h-1.9V211.9z M1115.8,217.4
				c0.7,0,2.3-0.1,2.3-2.1c0-2.1-1.7-2.2-2.4-2.2h-0.5v4.3H1115.8z"/>
			<path class="st0" d="M1133.1,213.8c-0.3-0.4-0.9-0.8-1.7-0.8c-1.3,0-2.3,1.1-2.3,2.3c0,1.3,1,2.3,2.3,2.3c0.6,0,1.2-0.2,1.6-0.8
				h1.4c-0.5,1.2-1.6,2-3.1,2c-2.3,0-3.5-2-3.5-3.5c0-1.5,1.1-3.4,3.5-3.4c1.4,0,2.5,0.7,3.1,2H1133.1z"/>
			<path class="st0" d="M1138.3,211.9h1.2v2.7h2.4v-2.7h1.2v6.7h-1.2v-2.8h-2.4v2.8h-1.2V211.9z"/>
			<path class="st0" d="M1147.4,211.9h3.6v1.2h-2.3v1.5h2.2v1.2h-2.2v1.5h2.3v1.2h-3.6V211.9z"/>
			<path class="st0" d="M1155.1,211.9h1.7l1.8,5.1l1.8-5.1h1.7v6.7h-1.2v-5l-1.7,5h-1l-1.7-5v5h-1.2V211.9z"/>
			<path class="st0" d="M1166.3,211.9h1.2v6.7h-1.2V211.9z"/>
			<path class="st0" d="M1176.6,213.8c-0.3-0.4-0.9-0.8-1.7-0.8c-1.3,0-2.3,1.1-2.3,2.3c0,1.3,1,2.3,2.3,2.3c0.6,0,1.2-0.2,1.6-0.8
				h1.4c-0.5,1.2-1.6,2-3.1,2c-2.3,0-3.5-2-3.5-3.5c0-1.5,1.1-3.4,3.5-3.4c1.4,0,2.5,0.7,3.1,2H1176.6z"/>
			<path class="st0" d="M1183.9,211.9h1l2.8,6.7h-1.4l-0.7-1.7h-2.4l-0.7,1.7h-1.4L1183.9,211.9z M1185.1,215.6l-0.8-1.9l-0.8,1.9
				H1185.1z"/>
			<path class="st0" d="M1191.3,211.9h1.2v5.5h2v1.2h-3.3V211.9z"/>
			<path class="st0" d="M1208,213.8c-0.3-0.4-0.9-0.8-1.7-0.8c-1.3,0-2.3,1.1-2.3,2.3c0,1.3,1,2.3,2.3,2.3c0.6,0,1.2-0.2,1.6-0.8
				h1.4c-0.5,1.2-1.6,2-3.1,2c-2.3,0-3.5-2-3.5-3.5c0-1.5,1.1-3.4,3.5-3.4c1.4,0,2.5,0.7,3.1,2H1208z"/>
			<path class="st0" d="M1219.8,215.3c0,1.9-1.5,3.5-3.5,3.5s-3.5-1.5-3.5-3.5s1.5-3.5,3.5-3.5
				C1218.3,211.8,1219.8,213.3,1219.8,215.3z M1218.6,215.2c0-1.2-1-2.3-2.3-2.3c-1.3,0-2.3,1-2.3,2.3c0,1.3,1,2.3,2.3,2.3
				C1217.6,217.5,1218.6,216.5,1218.6,215.2z"/>
			<path class="st0" d="M1223.7,211.9h1.7l1.8,5.1l1.8-5.1h1.7v6.7h-1.2v-5l-1.7,5h-1l-1.7-5v5h-1.2V211.9z"/>
			<path class="st0" d="M1234.9,211.9h1.9c2.1,0,2.4,1.4,2.4,2.1c0,0.8-0.5,2.1-2.4,2.1h-0.6v2.5h-1.2V211.9z M1236.1,214.8h0.7
				c0.3,0,1.1-0.1,1.1-0.9c0-0.8-0.7-0.9-1.1-0.9h-0.7V214.8z"/>
			<path class="st0" d="M1244.6,211.9h1l2.8,6.7h-1.4l-0.7-1.7h-2.4l-0.7,1.7h-1.4L1244.6,211.9z M1245.8,215.6l-0.8-1.9l-0.8,1.9
				H1245.8z"/>
			<path class="st0" d="M1252,211.9h1.2l3,4.5v-4.5h1.2v6.7h-1.2l-3-4.5v4.5h-1.2V211.9z"/>
			<path class="st0" d="M1263.2,216.1l-2.2-4.2h1.4l1.5,3.1l1.5-3.1h1.3l-2.2,4.2v2.5h-1.2V216.1z"/>
		</g>
		<g>
			<path class="st0" d="M1055.7,179.1v4.1h-19.2v5.4h11.2v4.1h-11.2v6.2h19.4v4.4h-25.1v-24.3H1055.7z"/>
			<path class="st0" d="M1066,199.6h13.7v-16.9h4.8v15.8c0,0.9,0,2.8-1.1,3.9c-1,1-2.7,1-4,1h-13c-1.3,0-3,0-4-1
				c-1.1-1.1-1.1-3-1.1-3.9v-15.8h4.8V199.6z"/>
			<path class="st0" d="M1108.1,182.7c1,0,2.4,0.1,3.4,0.8c1.2,0.9,1.2,2.3,1.2,3.2v4.9c0,1.6-0.6,2.5-1.1,3c-1,0.8-2.6,0.9-3.5,0.9
				h-2.8l9.5,7.8h-6.9l-8.3-7.8h-4.5v7.8h-4.8v-20.6H1108.1z M1095.1,186.2v5.8h11c0.3,0,1-0.1,1.3-0.3c0.5-0.4,0.5-1,0.5-1.3v-2.5
				c0-0.3,0-0.9-0.5-1.3c-0.4-0.3-1.2-0.3-1.4-0.3H1095.1z"/>
			<path class="st0" d="M1118.3,187.6c0-0.9,0-2.8,1.1-3.9c1-1,2.7-1,4-1h15.2c1.3,0,3,0,4,1c1.1,1.1,1.1,3,1.1,3.9v10.9
				c0,0.9,0,2.8-1.1,3.9c-1,1-2.7,1-4,1h-15.2c-1.3,0-3,0-4-1c-1.1-1.1-1.1-3-1.1-3.9V187.6z M1138.9,199.6v-13.1h-15.8v13.1H1138.9
				z"/>
			<path class="st0" d="M1155.1,183.5v15.4h15.2v-5.3l5.6,1.2v2.8c0,1,0,3.3-1.3,4.6c-1.2,1.1-3.1,1.2-4.7,1.2h-14.5
				c-1.6,0-3.5,0-4.7-1.2c-1.3-1.3-1.3-3.5-1.3-4.6v-12.8c0-1,0-3.3,1.3-4.6c1.2-1.1,3.1-1.2,4.7-1.2h14.5c1.6,0,3.5,0,4.7,1.2
				c1.3,1.3,1.3,3.5,1.3,4.6v2.4l-5.6,0.9v-4.6H1155.1z"/>
			<path class="st0" d="M1186.6,182.7v8h15v-8h4.8v20.6h-4.8v-8.9h-15v8.9h-4.8v-20.6H1186.6z"/>
			<path class="st0" d="M1233.5,182.7v3.5h-16.3v4.6h9.5v3.5h-9.5v5.2h16.5v3.8h-21.3v-20.6H1233.5z"/>
			<path class="st0" d="M1265.6,182.7v20.6h-4.4v-12.8c0-0.3,0-1,0.2-2.2c-0.4,1-1,1.9-1.2,2.2l-7.8,10.3h-1l-7.8-10.4
				c-0.7-1-1-1.5-1.2-2.1l0.1,2.2v12.8h-3.9v-20.6h3.9l9.7,12.5l9.5-12.5H1265.6z"/>
		</g>
	</g>
	<g class="st6">
		<path class="st0" d="M958.7,198.6l-18.6,0.1l27.4,32.9l0-24.3C962.7,207.2,958.9,203.4,958.7,198.6z"/>
		<path class="st0" d="M967.6,189.4c4.9,0,8.9,4,8.9,8.9c0,0.1,0,0.2,0,0.3l18.4-0.1l-27.4-32.9L967.6,189.4
			C967.6,189.4,967.6,189.4,967.6,189.4z"/>
		<linearGradient id="SVGID_9_" gradientUnits="userSpaceOnUse" x1="970.4844" y1="204.2912" x2="982.6158" y2="216.4225">
			<stop  offset="0.2" style="stop-color:#72D3DB;stop-opacity:0"/>
			<stop  offset="1" style="stop-color:#72D3DB"/>
		</linearGradient>
		<path class="st11" d="M976.5,198.6c-0.1,4.8-4.1,8.7-8.9,8.7c0,0-0.1,0-0.1,0l0,24.3l27.5-33L976.5,198.6z"/>
		<linearGradient id="SVGID_10_" gradientUnits="userSpaceOnUse" x1="952.4732" y1="180.78" x2="964.5134" y2="192.8202">
			<stop  offset="0" style="stop-color:#72D3DB"/>
			<stop  offset="0.8" style="stop-color:#72D3DB;stop-opacity:0"/>
		</linearGradient>
		<path class="st12" d="M958.7,198.3c0-4.9,4-8.9,8.9-8.9l0-23.7l-27.5,33l18.6-0.1C958.7,198.5,958.7,198.4,958.7,198.3z"/>
		<path class="st0" d="M960.1,198.8c0-0.1,0-0.2,0-0.2c0-0.1,0-0.2,0-0.2c0-4.7,3.6-8.5,8.2-8.9c-0.2,0-0.5,0-0.7,0
			c-4.9,0-8.9,4-8.9,8.9c0,4.2,2.9,7.7,6.8,8.7C962.3,205.6,960.1,202.5,960.1,198.8z"/>
		<polygon class="st0" points="940.1,199 940.1,199 940.1,198.8 963,171.3 958,165.7 927.9,198.7 957.8,231.7 931.4,199 		"/>
		<linearGradient id="SVGID_11_" gradientUnits="userSpaceOnUse" x1="931.4057" y1="215.3499" x2="962.8553" y2="215.3499">
			<stop  offset="0" style="stop-color:#0EA7D4"/>
			<stop  offset="0.801" style="stop-color:#72D3DB;stop-opacity:0"/>
		</linearGradient>
		<polygon class="st13" points="940.1,199 940.1,199 931.4,199 957.8,231.7 962.9,226.3 940.1,199 		"/>
		<polygon class="st0" points="977.3,165.8 1004.3,199 995,199 994.8,198.9 972.1,226.1 977.1,231.6 1007.3,198.6 		"/>
		<linearGradient id="SVGID_12_" gradientUnits="userSpaceOnUse" x1="972.2209" y1="182.3904" x2="1004.3272" y2="182.3904">
			<stop  offset="0.199" style="stop-color:#72D3DB;stop-opacity:0"/>
			<stop  offset="1" style="stop-color:#0EA7D4"/>
		</linearGradient>
		<polygon class="st14" points="994.8,198.9 995,199 1004.3,199 977.3,165.8 972.2,171.2 995,198.6 		"/>
	</g>
</g>
</svg>
