<svg version="1" xmlns="http://www.w3.org/2000/svg" viewBox="0 0 543 349" enable-background="new 0 0 543 349"><g fill-rule="evenodd" clip-rule="evenodd"><path fill="#888786" d="M46.2 315.8c-3.7 0-5.8-1.7-5.8-4.6v-2.3h4.2v2.3c0 .8.8 1.2 1.2 1.2.6 0 1.3-.4 1.3-1v-15.8h4.6v15.6c.1 2.6-2.3 4.6-5.5 4.6zm27.3-5.2c0 1.2-1 1.7-1.7 1.7s-1.5-.6-1.5-1.7v-10.2c0-1 .8-1.5 1.5-1.5s1.7.6 1.7 1.5v10.2zm4.8-1v-8.9c0-3.1-1.9-5.6-6.6-5.6-4.4 0-6.4 2.5-6.4 5.6v8.9c0 4 1.9 6.4 6.4 6.4 4.5-.1 6.6-2.4 6.6-6.4zm13.5 5.8v-19.9h4.8v19.9h-4.8zm26.8 0l-4.2-11.9c.2 2.1 1 5.2 1 7.3v4.6h-4.6v-19.8h4.6l4 12.5c-.2-2.3-.8-5.4-.8-7.5v-5h4.6v19.8h-4.6zm25.8-15.8v15.8h-4.4v-15.8h-3.9v-4.1h11.8v4.1h-3.5zm15.6 10.8v-3.1h12v3.1h-12zm30.9 5.4c-4.2 0-6.2-1.7-6.2-5.6v-1.3h4.4v1.2c0 1.7.6 2.3 1.7 2.3 1 0 1.5-.8 1.5-1.9 0-1.2-.6-1.9-1.7-2.7l-2.9-1.7c-1.7-1-2.9-2.9-2.9-5.4 0-3.5 2.3-5.4 6-5.4 3.3 0 6 1.7 6 6v.4h-4.4v-.4c0-1.7-.6-2.5-1.5-2.5-1 0-1.5.6-1.5 1.5 0 1 .4 1.7 1.5 2.3l2.9 1.7c1.9 1.2 3.1 2.5 3.1 5.6-.1 3.9-2.4 5.9-6 5.9zm26.7-16.2v15.8h-4.4v-15.8h-3.8v-4.1h11.7v4.1h-3.5zm24.3 11c0 1.2-1 1.7-1.7 1.7-.8 0-1.7-.6-1.7-1.7v-10.2c0-1 1-1.5 1.7-1.5.8 0 1.7.6 1.7 1.5v10.2zm4.6-1v-8.9c0-3.1-1.7-5.6-6.4-5.6-4.4 0-6.4 2.5-6.4 5.6v8.9c0 4 1.9 6.4 6.4 6.4s6.4-2.4 6.4-6.4zm19.7 6.3c-4.4 0-6.6-1.9-6.6-6.6v-8.7c0-3.1 1.9-5.6 6.6-5.6 4.4 0 6.4 2.5 6.4 5.6v1.9h-4.6v-2.3c0-1-1.2-1.5-1.7-1.5-1 0-1.7.4-1.7 1.5v9.8c0 1.5.6 2.1 1.7 2.1 1 0 1.7-.6 1.7-2.1v-2.5h4.6v1.7c0 4.8-2 6.7-6.4 6.7zm28.1-.5l-2.3-7-1.1 2.3v4.7h-4.7v-19.9h4.7v7.9l3.2-7.9h5.2l-4.4 8.9 4.4 11h-5zm42 .5c-4.4 0-6.4-1.9-6.4-6.6v-8.7c0-3.1 1.9-5.6 6.4-5.6 4.6 0 6.6 2.5 6.6 5.6v1.9h-4.8v-2.3c0-1-1-1.5-1.7-1.5-.8 0-1.5.4-1.5 1.5v9.8c0 1.5.6 2.1 1.5 2.1 1 0 1.7-.6 1.7-2.1v-2.5h4.8v1.7c0 4.8-2.1 6.7-6.6 6.7zm28-5.3c0 1.2-1 1.7-1.7 1.7-.8 0-1.5-.6-1.5-1.7v-10.2c0-1 .8-1.5 1.5-1.5.8 0 1.7.6 1.7 1.5v10.2zm4.8-1v-8.9c0-3.1-1.9-5.6-6.6-5.6-4.4 0-6.4 2.5-6.4 5.6v8.9c0 4 1.9 6.4 6.4 6.4s6.6-2.4 6.6-6.4zm27 5.8v-6.9c0-1.9 0-6.9.2-8.7l-3.1 15.6h-3.3l-2.9-15.6c0 1.3.2 6 .2 8.7v6.9h-4.6v-19.8h6.7l1.5 8.1c.4 1.5.6 4.4.8 6.4.2-1.9.4-5 .8-6.4l1.5-8.1h6.6v19.8h-4.4zm26.3-13.9c0 2.1-1.2 2.7-2.3 2.7h-.8v-5h.8c1.4 0 2.3.4 2.3 2.3zm4.9.2c0-5.2-3.1-6.2-5.8-6.2h-6.9v19.8h4.8v-7.7h2.1c2.7.1 5.8-1.1 5.8-5.9zm20.2 6.2h-2.5l1.2-8.7 1.3 8.7zm6 7.5l-4.4-19.8h-5.6l-4.4 19.8h4.8l.6-3.9h3.7l.8 3.9h4.5zm20.6 0l-4.2-11.9c.2 2.1 1 5.2 1 7.3v4.6h-4.6v-19.8h4.6l4 12.5c-.2-2.3-.8-5.4-.8-7.5v-5h4.6v19.8h-4.6zm26.8-8.7v8.7h-4.9v-8.7l-4.8-11.2h4.8l2.6 6.4 2.5-6.4h4.6l-4.8 11.2z"/><path fill="#4C73B7" d="M234.4 235.8v40.3h-7.9l-2.7-5.2c-.8 1.2-1.9 2.5-3.9 3.5-1.9 1.2-3.7 1.7-5.4 1.7h-7.7c-2.5 0-4.8-.8-6.6-2.5-1.9-1.5-2.7-3.3-2.7-5.6v-60.7c0-2.7.8-5 2.7-6.7 1.7-1.7 4-2.7 6.6-2.7h17.2c2.9 0 5.4.8 7.3 2.5 2.1 1.7 3.1 3.9 3.1 6.6v18h-15.6v-11.8c0-1.9-1-2.9-2.9-2.9-1.7 0-2.7 1-2.7 2.9v47.2c0 1 .2 1.5.8 2.1.6.6 1.2.8 1.9.8 1.9 0 2.9-.8 2.9-2.9v-9.1c0-1.3-.2-2.1-.6-2.5-.6-.4-1.3-.6-2.3-.6v-12.5h18.5v.1zm27.2 11.9h-4.8l2.5-34.1 2.3 34.1zm-12.6-49.9l-9.6 78.2h15.2l1.2-15h6.7l1.2 15h15.2l-9.6-78.2h-20.3zm62.9 0v12.6l-14.7 52.9h14.7v12.8h-30.3v-9.9l15.4-55.8h-14v-12.6h28.9zm22.1 12.2h2.9c.6 0 1.2.2 1.7.8.6.6 1 1.3 1 2.1v21c0 .6-.2 1.2-.8 1.7-.6.6-1.3 1-1.9 1h-2.9v-26.6zm-15.6 65.7h15.6v-26.4h12.3c2.5 0 4.6-1 6.4-2.7 1.7-1.7 2.5-3.9 2.5-6.4v-34.7c0-2.3-.8-4.2-2.3-5.8-1.7-1.5-3.7-2.3-6-2.3h-28.5v78.3zm58.8-65.7h2.9c.6 0 1.2.2 1.9.8.6.6 1 1.3 1 2.1v15.6c0 .8-.4 1.3-1 1.9-.6.6-1.2 1-1.9 1h-2.9v-21.4zm0 65.7v-29.9h2.9c.6 0 1.2.2 1.9.8.6.6 1 1.3 1 2.1v27h15.6v-28.7c0-2.5-.6-4.4-1.5-6.2-1.2-1.7-2.3-2.9-4-3.1 1.7-.4 2.9-1.2 4-2.7 1-1.5 1.5-3.3 1.5-5.2v-23.9c0-2.3-.8-4.4-2.3-6.2-1.5-1.5-3.3-2.3-5.4-2.3h-29.3v78.2h15.6v.1zm44.7-62.8c0-1.9 1-2.9 2.9-2.9 1.7 0 2.7 1 2.7 2.9v47.2c0 1.9-1 2.9-2.7 2.9-1 0-1.5-.2-2.1-.8-.6-.6-.8-1.3-.8-2.1v-47.2zm21.2-6.6c0-2.5-1-4.6-2.7-6.4-1.7-1.7-3.9-2.5-6.6-2.5h-18.7c-2.5 0-4.6.8-6.4 2.5-1.7 1.7-2.5 3.9-2.5 6.4v60.5c0 2.5 1 4.6 2.7 6.2 1.7 1.7 3.9 2.7 6.2 2.7h18.7c2.7 0 4.8-1 6.6-2.7 1.7-1.7 2.7-3.9 2.7-6.2v-60.5zm28.5-8.8l5.8 40.2 5.7-40.2h21v78.2h-15.8v-44.5l-6.3 44.5h-9.3l-6.1-44.5-.2 44.5h-15.8v-78.2h21zm-319.3-2.9c17-25.2 25.6-51.1 25.6-81.5 0-30.2-9.1-56.5-25.6-81.7-14.8 23.7-24.5 48.6-25.2 76.3-1 30.8 7.9 61.2 25.2 86.9zm0-6v-.2c-4.6-9.2-7.1-19.3-7.1-29.5 0-10 2.5-20.6 7.1-29.5 4.6 9.2 7.3 19.1 7.3 29.5 0 10.8-2.6 20.1-7.3 29.7zm-18.9-81.7c1.5-22.5 8.3-42.6 18.9-63v.2c12.1 21.6 18.3 43 19.5 67.6.8 10.8-.4 21.4-2.7 32 .6-11 0-21.2-2.1-31.8-2.5-14.8-7.7-28.1-14.6-41.4v-.2c-6.2 12.1-10.8 24.1-13.7 37.2-2.7 12.3-3.3 23.5-3.3 36.2-1.8-12.3-2.9-24.5-2-36.8zm-7.1 117.7c5-4.8 9.6-7.3 16.6-6.7 11.2 1.2 18.5 7.9 19.1 18.9 1 21.4-27.2 34.3-44.7 33.3-25.6-1.3-42.6-17.7-46.6-41.2-2.3-14.3 2.9-29.9 12.9-40.8 10-10.6 23.5-14.8 37.6-15v-64c-47.8 0-83 33.9-85.5 80.3-2.7 51.6 34.9 86.7 82.7 88.4 25.4 1 44.5-8.7 61.8-25v-55.1h-53.8v26.9h-.1z"/></g></svg>