<?xml version="1.0" encoding="utf-8"?>
<!-- Generator: Adobe Illustrator 19.1.0, SVG Export Plug-In . SVG Version: 6.00 Build 0)  -->
<svg version="1.1" id="Слой_1" xmlns="http://www.w3.org/2000/svg" xmlns:xlink="http://www.w3.org/1999/xlink" x="0px" y="0px"
	 viewBox="0 0 266 267.3" style="enable-background:new 0 0 266 267.3;" xml:space="preserve">
<style type="text/css">
	.st0{display:none;fill-rule:evenodd;clip-rule:evenodd;fill:#FFFFFF;}
	.st1{fill-rule:evenodd;clip-rule:evenodd;fill:#42484D;}
	.st2{fill-rule:evenodd;clip-rule:evenodd;fill:#DEDEDE;}
	.st3{fill-rule:evenodd;clip-rule:evenodd;fill:#44484C;}
	.st4{fill-rule:evenodd;clip-rule:evenodd;fill:#AFA53A;}
</style>
<g>
	<polygon class="st0" points="-1.3,0 266,0 266,267.3 -1.3,267.3 -1.3,0 	"/>
	<polygon class="st1" points="100.6,164.5 100.6,162.2 94.6,162.2 94.6,164.5 93.8,164.5 93.8,159.5 94.6,159.5 94.6,161.7 
		100.6,161.7 100.6,159.5 101.3,159.5 101.3,164.5 100.6,164.5 	"/>
	<polygon class="st1" points="103.6,164.5 103.6,159.5 109.6,159.5 109.6,160 104.3,160 104.3,161.7 109.5,161.7 109.5,162.2 
		104.3,162.2 104.3,164 109.6,164 109.6,164.5 103.6,164.5 	"/>
	<path class="st1" d="M121.8,162.3v-0.6c0-1.2-0.6-1.8-2.5-1.8h-2.1v-0.5h-0.7v0.5h-2c-1.9,0-2.5,0.5-2.5,1.8v0.6
		c0,1.3,0.7,1.7,2.5,1.7h2v0.5h0.7V164h2.1C121.1,164,121.8,163.6,121.8,162.3L121.8,162.3z M121.1,162.3c0,1-0.5,1.2-1.8,1.2h-2.1
		v-3.2h2.1c1.3,0,1.8,0.3,1.8,1.3V162.3L121.1,162.3z M116.5,163.5h-2c-1.3,0-1.8-0.3-1.8-1.2v-0.7c0-1,0.6-1.3,1.8-1.3h2V163.5
		L116.5,163.5z"/>
	<polygon class="st1" points="131.2,160 131.2,159.5 123.9,159.5 123.9,160 127.2,160 127.2,164.5 127.9,164.5 127.9,160 131.2,160 
			"/>
	<path class="st1" d="M140,164.5v-5.1h-4.6c-1.7,0-2.4,0.4-2.4,1.6c0,1,0.7,1.4,2,1.4l-2.3,2.1h1l2.2-2.1h3.4v2.1H140L140,164.5z
		 M139.3,161.9h-4.1c-1.1,0-1.5-0.1-1.5-0.9c0-0.8,0.4-1.1,1.4-1.1h4.1V161.9L139.3,161.9z"/>
	<polygon class="st1" points="149.3,164.5 149.3,162.2 143.3,162.2 143.3,164.5 142.6,164.5 142.6,159.5 143.3,159.5 143.3,161.7 
		149.3,161.7 149.3,159.5 150,159.5 150,164.5 149.3,164.5 	"/>
	<path class="st1" d="M159.9,164.5l-3.5-5.1h-1.1l-3.5,5.1h0.8l0.9-1.3h4.8l0.9,1.3H159.9L159.9,164.5z M157.9,162.8h-4l2-2.9
		L157.9,162.8L157.9,162.8z"/>
	<path class="st1" d="M167.9,164.5v-2.1h-3.4l-2.2,2.1h-1l2.3-2.1c-1.3,0-2-0.4-2-1.4c0-1.2,0.7-1.6,2.4-1.6h4.6v5.1H167.9
		L167.9,164.5z M167.9,160h-4.1c-1,0-1.4,0.3-1.4,1.1c0,0.8,0.4,0.9,1.5,0.9h4.1V160L167.9,160z"/>
	<polygon class="st1" points="182.9,164.5 178,161.9 182.7,159.5 181.5,159.5 177.2,161.6 176.1,161.6 176.1,159.5 175.4,159.5 
		175.4,164.5 176.1,164.5 176.1,162.2 177.3,162.2 181.6,164.5 182.9,164.5 	"/>
	<path class="st1" d="M192,162.8c0,1-0.3,1.2-1.8,1.2h-3c-1.3,0-1.8-0.3-1.8-1.2v-1.6c0-1,0.5-1.3,1.8-1.3h3c1.4,0,1.8,0.3,1.8,1.3
		V162.8L192,162.8z M192.7,162.8v-1.6c0-1.5-0.8-1.8-2.4-1.8h-3c-1.9,0-2.5,0.5-2.5,1.8v1.6c0,1.3,0.7,1.7,2.5,1.7h3
		C192,164.5,192.7,164.2,192.7,162.8L192.7,162.8z"/>
	<polygon class="st1" points="204.1,164.5 204.1,159.9 203.7,159.9 200.1,164.5 199.7,164.5 196.1,159.9 195.7,159.9 195.7,164.5 
		195,164.5 195,159.5 196.5,159.5 199.9,163.8 203.3,159.5 204.8,159.5 204.8,164.5 204.1,164.5 	"/>
	<polygon class="st1" points="214.8,164.5 214.8,159.5 207.3,159.5 207.3,164.5 208,164.5 208,160 214,160 214,164.5 214.8,164.5 	
		"/>
	<path class="st1" d="M223.9,164.5l-0.9-1.3h-4.8l-0.9,1.3h-0.8l3.5-5.1h1.1l3.5,5.1H223.9L223.9,164.5z M220.7,159.8l-2,2.9h4
		L220.7,159.8L220.7,159.8z"/>
	<polygon class="st1" points="234.1,164.5 234.1,159.5 233.4,159.5 233.4,161.7 227.4,161.7 227.4,159.5 226.7,159.5 226.7,164.5 
		227.4,164.5 227.4,162.2 233.4,162.2 233.4,164.5 234.1,164.5 	"/>
	<polygon class="st1" points="244,164.5 244,159.5 242.6,159.5 237.2,164.1 237.2,164.1 237.2,159.5 236.5,159.5 236.5,164.5 
		237.6,164.5 243,159.9 243.2,159.9 243.2,164.5 244,164.5 	"/>
	<path class="st1" d="M252.4,161.9h-4.1c-1.1,0-1.5-0.1-1.5-0.9c0-0.8,0.4-1.1,1.4-1.1h4.2V161.9L252.4,161.9z M253.1,164.5v-5.1
		h-4.6c-1.7,0-2.4,0.4-2.4,1.6c0,1,0.7,1.4,2,1.4l-2.3,2.1h1l2.2-2.1h3.4v2.1H253.1L253.1,164.5z"/>
	<path class="st1" d="M93.8,172.1c0,0,15.3-0.2,16.5,0.6c1.2,0.8,2.4,1.6,2.6,3.2c0.2,1.6-0.8,6.7-4.7,6.9c-3.9,0.2-8.3-0.2-8.3-0.2
		l-0.2,4.1l-6.1-0.2L93.8,172.1L93.8,172.1z"/>
	<path class="st2" d="M100.1,176.1l-0.2,2.4c0,0,4.9,1,5.9,0c1-1,0.2-2.6-1.4-2.6C102.7,175.9,100.1,176.1,100.1,176.1L100.1,176.1z
		"/>
	<path class="st3" d="M112.9,175.9c1.6-1.8,4.5-4.7,11-4.3c6.5,0.4,10,3,10,6.1c0,3,0.2,7.1-3.7,8.3c-3.9,1.2-7.7,1.2-10.4,0.8
		c-2.6-0.4-6.9-2.9-7.5-6.1C111.7,177.6,112.9,175.9,112.9,175.9L112.9,175.9z"/>
	<path class="st2" d="M119,179.8c-0.4-2.6,1.8-4.3,3.7-4.3c1.8,0,4.9,0.2,4.7,3.7c-0.2,3.5-0.4,3.2-2.2,3.9
		C123.3,183.6,119.6,184.3,119,179.8L119,179.8z"/>
	<path class="st3" d="M155.6,177.8c-1-1.8-3.2-5.3-6.7-5.5c-3.5-0.2-8.1-0.6-10.4,0.2c-2.2,0.8-4.1,2.8-4.5,4.7
		c-0.4,1.8-0.8,5.9,1.8,7.7c2.6,1.8,6.9,3.3,11,2.4c4.1-0.8,7.9-2.4,8.5-5.9c-2,0-6.9,0-6.9,0s-1.8,2.4-4.1,2.2c0,0-2,0.6-3.5-1.4
		c-1.4-2-1.2-3.9,0.2-5.7c1.4-1.8,5.3-1.2,5.7-0.4c0.4,0.8,1,2,1,2L155.6,177.8L155.6,177.8z"/>
	<polygon class="st3" points="155,172.5 161.3,172.5 161.3,177.3 167.6,177.3 167.6,172.1 174.1,172.1 174.1,186.7 168,186.7 
		168,181.8 161.5,181.8 161.5,186.7 154.8,186.7 155,172.5 	"/>
	<polygon class="st3" points="176.1,172.1 194.2,172.3 194.2,175.9 183.2,175.9 183.2,177.3 192.4,177.3 192.4,181.4 182.8,181.4 
		182.8,183.2 194.6,183.2 194.6,187.1 176.3,187.1 176.1,172.1 	"/>
	<path class="st3" d="M203.5,172.1h6.3c0,0-0.4,1,0.4,0.8c0.8-0.2,6.3-0.4,7.9,1.6c1.6,2,2.2,4.7,0.6,6.5c-1.6,1.8-3.1,2.6-4.1,2.6
		c-1,0-4.5,0.2-4.5,0.2v3.3h-6.7v-3.5c0,0-4.3-0.2-5.7-0.6c-1.4-0.4-4.1-2-4.1-4.7c0-2.6,1.4-4.9,3.5-5.1c2-0.2,5.9-0.2,5.9-0.2
		L203.5,172.1L203.5,172.1z"/>
	<path class="st2" d="M203.5,176.5l-0.2,3c0,0-3.2,0.4-3.2-0.8C200.1,177.6,200.7,176.3,203.5,176.5L203.5,176.5z"/>
	<path class="st2" d="M210.3,176.7l0.2,2.8c0,0,1.8,0.8,2.9-0.6C214.3,177.6,212.5,176.5,210.3,176.7L210.3,176.7z"/>
	<path class="st3" d="M223.1,176.5v10.8h6.5v-10.8h5.9l1.2-1.6l-1.8-2.2h-17.1c0,0-0.8,3.2,1,3.4
		C220.6,176.3,223.1,176.5,223.1,176.5L223.1,176.5z"/>
	<path class="st3" d="M242,172.7v4.1c0,0,7.7-0.4,9.2,0.4c1.4,0.8,2.8,2,3,3.5c0.2,1.4-0.2,3.7-1.6,4.9c-1.4,1.2-3,2-4.7,2
		c-1.6,0-11.8,0-11.8,0v-14.6L242,172.7L242,172.7z"/>
	<path class="st2" d="M242.6,181v2.4c0,0,3,0,4.1,0c1,0,2.4-2.2,0.6-2.6C245.4,180.4,242.6,181,242.6,181L242.6,181z"/>
	<polygon class="st3" points="10.5,105 20.8,105 20.8,140.2 10.5,131 10.5,105 	"/>
	<polygon class="st3" points="22.9,93.4 32.8,93.4 32.8,151.5 22.9,142 22.9,93.4 	"/>
	<polygon class="st3" points="34.9,81.8 45,81.8 45,136.9 34.9,136.9 34.9,81.8 	"/>
	<polygon class="st3" points="47,70.2 57.6,70.2 57.6,125.5 47,125.5 47,70.2 	"/>
	<polygon class="st3" points="59,81.2 69.2,81.2 69.2,136.9 59,136.9 59,81.2 	"/>
	<polygon class="st3" points="71.6,93.2 81.6,93.2 81.6,141.8 71.6,151.5 71.6,93.2 	"/>
	<polygon class="st3" points="83.4,104.8 93.6,104.8 93.6,130.2 83.4,140.2 83.4,104.8 	"/>
	<polygon class="st4" points="34.9,138.1 45,138.1 45,189.1 34.9,189.1 34.9,138.1 	"/>
	<polygon class="st4" points="47,127.2 57,127.2 57,189.1 47,189.1 47,127.2 	"/>
	<polygon class="st4" points="59,138.3 69.2,138.3 69.2,189.1 59,189.1 59,138.3 	"/>
</g>
</svg>
