<svg version="1" xmlns="http://www.w3.org/2000/svg" viewBox="0 0 458.3 229.6" enable-background="new 0 0 458.3 229.6"><path d="M338.9 162c.3 0 .6-.2.6-.5v-3.9c0-.3-.2-.5-.5-.5h-5.2c-4.7 0-7.9-3.1-7.9-7.8 0-5.2 3.5-8 8-8h4.7c.3 0 .5-.2.5-.5v-3.9c0-.3-.2-.5-.5-.5h-5.8c-9.2 0-14 5.8-14 12.7 0 6.8 4.6 13.2 13.9 13.2m-113.9-15.7c-2.1-.7-4.5-1.1-4.5-3.3 0-.7.2-2.1 4-2.1h6c.3 0 .5-.2.5-.5v-3.9c0-.3-.2-.5-.5-.5h-7.3c-7.6 0-9.5 4.3-9.5 7.2 0 4.4 2.9 6.1 7 7.6 2.5.9 4.5 1.5 4.5 3.6 0 1.1-.8 2.4-4.3 2.4h-6.8c-.3 0-.5.2-.5.5v4c0 .3.2.5.5.5h7.8c6.9 0 10.1-3.5 10.1-7.6 0-5.2-4-7-7-7.9m-29.1-10.9c-7.7 0-13.4 4.7-13.4 13.4s5.6 13.3 13.4 13.3c7.7 0 13.4-4.7 13.4-13.3 0-8.7-5.7-13.4-13.4-13.4m0 21.8c-3 0-6.3-2.4-6.3-8.4s3.3-8.5 6.3-8.5 6.3 2.4 6.3 8.5c0 6-3.3 8.4-6.3 8.4m165.6-21.8c-7.7 0-13.4 4.7-13.4 13.4s5.7 13.3 13.4 13.3 13.3-4.7 13.3-13.3c.1-8.7-5.6-13.4-13.3-13.4m0 21.8c-3 0-6.3-2.4-6.3-8.4s3.2-8.5 6.3-8.5c3 0 6.3 2.4 6.3 8.5 0 6-3.3 8.4-6.3 8.4m-43.3-1.1s-3.5.3-6.1.3c-4.6 0-8.4-2.3-8.6-5.6h14.4c1.6 0 2.9-1.3 2.9-2.9-.2-3.8-1.5-12.5-11.7-12.5-6.9 0-12.8 5-12.8 13.4 0 9.2 7.7 13 15.5 13 3 0 6.4-.3 6.4-.3.3 0 .5-.2.6-.5v-4.3c-.1-.4-.4-.6-.6-.6m-9.5-16c2.5 0 5.4 1.7 5.4 6.1h-10.7c.1-3.4 2.3-6.1 5.3-6.1m-31.4 16s-3.5.3-6.1.3c-4.6 0-8.4-2.3-8.6-5.6h14.4c1.6 0 2.9-1.3 2.9-2.9-.2-3.8-1.5-12.5-11.7-12.5-6.9 0-12.8 5-12.8 13.4 0 9.2 7.7 13 15.5 13 3 0 6.4-.3 6.4-.3.3 0 .5-.2.5-.5v-4.3c0-.4-.2-.6-.5-.6m-9.5-16c2.5 0 5.5 1.7 5.4 6.1h-10.7c.1-3.4 2.3-6.1 5.3-6.1m23.2-13.4h-3.3c-1.6 0-2.9 1.3-2.9 2.9v31.5c0 .3.2.5.6.5h5.7c.3 0 .5-.2.5-.5v-33.9c0-.2-.3-.5-.6-.5m-110.6 34.4l-5.4-12.9c-.8-2-2-3.3-3.7-3.7v-.1c2.5-.6 6.8-2.4 6.8-8.2 0-4.7-2.4-9.5-11.7-9.5h-9.5c-1.6 0-2.9 1.3-2.9 2.9v31.5c0 .3.2.5.5.5h6c.3 0 .5-.2.5-.5v-13.9h2.7c2.4 0 3.7 1.2 4.5 3.3l4.3 10.6c.1.4.4.5.7.5h6.8c.3.1.5-.2.4-.5m-15.6-19.3h-3.8v-9.6h3.8c5.6 0 6 3.6 6 4.8-.1 2-1.5 4.8-6 4.8m87.1 14.9h-1.2c-4.4 0-4.3-2.5-4.3-5v-10.9h5.5c.3 0 .5-.2.5-.5v-3.9c0-.3-.3-.5-.5-.5h-5.5v-5.4c0-.3-.2-.5-.5-.5h-3.3c-1.6 0-2.9 1.3-2.9 2.9v3h-4.6c-.3 0-.5.2-.5.5v4c0 .3.3.5.5.5h4.6v13.3c0 4.2 2.5 7.6 9.5 7.6h2.7c.3 0 .5-.2.5-.5v-3.9c.1-.4-.2-.7-.5-.7m158.1-21.3c-3.3 0-6.7 1.4-8.5 4.9h-.1c-.7-2.3-2.5-4.9-7.1-4.9-3.3 0-6.4 1.5-8 4.8h-.2v-1.5c0-1.6-1.3-2.9-2.9-2.9h-3c-.3 0-.5.2-.5.5v24.8c0 .3.3.5.5.5h5.7c.3 0 .5-.2.5-.5v-13.8c0-4.7 2.9-6.4 5.4-6.4 3.4 0 3.7 3.1 3.7 6.2v14c0 .3.3.5.6.5h5.7c.3 0 .5-.2.5-.4v-13.9c0-4.3 2.6-6.4 5.3-6.4 3.9 0 3.8 3.8 3.8 6.2v14c0 .3.3.5.6.5h5.7c.3 0 .6-.2.6-.5v-16.7c0-8.4-6-9-8.3-9"/><path fill="#55ADE7" d="M57.1 112.8c-7.4-10.4-11.8-22.9-12.3-35.1l-.1-2.6v-.1c0-10.1 3-19.2 7.8-26.2 2.7-4.6 8.7-9.3 16.5-12.4-3.5 1.3-6.9 3-10.1 5.1-56.1 34.3-25.7 122.5-2.7 149.7.3.4 2.8 3.1 3.6 3.9 14.4 14.2 35 16.5 46.1 5.3 10.8-10.9 8.4-30.8-5.2-44.9-14.3-15.4-30.4-23.3-43.6-42.7m28.3-79.6l-2.6.1c4.7-.3 8.7.5 11.4 2.1.5.3 1 .6 1.4.9 2.3 1.5 4 3.6 5.4 5.9 2.2 3.6 3.2 8 3.2 12.8v.4c-.1 9.8-4.5 21.3-13 31l-.7.7c-.7.8-1.4 1.7-2.1 2.6-8.5 12.2-6.6 28 4.1 35.5s26.3 3.6 34.7-8.5c.4-.6.8-1.2 1.2-1.9 24.3-37.9-3.9-83.2-43-81.6"/><path fill="#DB7743" d="M64.7 101.3c1.2-20.2 14.2-35.9 29.1-35 2.7.2 5.5 1 7.9 2.2 1.6-4.5 2.4-8.9 2.4-13.1v-.4c0-4.8-1.1-9.2-3.2-12.8-1.4-2.4-3.1-4.4-5.4-5.9l-1.4-.9c-5-3-14.4-2.9-24 .6-8.3 3-14.8 8-17.6 12.8-4.9 7-7.8 16.1-7.8 26.2 0 .9 0 1.7.1 2.6.6 12.1 4.9 24.7 12.3 35.1 6 8.9 12.6 15.3 19.3 21.1-7.7-6.7-12.5-18.9-11.7-32.5"/><path d="M-45.5 86.8l-1.1-2.5c-.2-.4-.4-.6-.7-.7.5-.1 1.3-.5 1.3-1.6 0-.9-.5-1.8-2.3-1.8h-1.8c-.3 0-.6.3-.6.6v6.1c0 .1 0 .1.1.1h1.2c.1 0 .1 0 .1-.1v-2.7h.5c.5 0 .7.2.9.6l.8 2c0 .1.1.1.1.1h1.3c.2 0 .2 0 .2-.1m-3-3.7h-.7v-1.9h.7c1.1 0 1.2.7 1.2.9-.1.4-.4 1-1.2 1m44.5-7.6l-2.5 1.1c-.4.2-.6.4-.7.7-.1-.5-.5-1.3-1.6-1.3-.9 0-1.8.5-1.8 2.3v1.7c0 .3.3.6.6.6h6c.1 0 .1 0 .1-.1v-1.2c0-.1 0-.1-.1-.1h-2.7v-.5c0-.5.2-.7.6-.9l2-.8c.1 0 .1-.1.1-.1v-1.3c.1-.1.1-.1 0-.1m-3.7 3v.7h-1.9v-.7c0-1.1.7-1.2.9-1.2.5.1 1 .3 1 1.2m-54.2-3l-2.5 1.1c-.4.2-.6.4-.7.7-.1-.5-.5-1.3-1.6-1.3-.9 0-1.8.5-1.8 2.3v1.7c0 .3.3.6.6.6h6.1c.1 0 .1 0 .1-.1v-1.2c0-.1 0-.1-.1-.1h-2.7v-.5c0-.5.2-.7.6-.9l2-.8c.1 0 .1-.1.1-.1v-1.3c0-.1-.1-.1-.1-.1m-3.8 3v.7h-1.9v-.7c0-1.1.7-1.2.9-1.2.5.1 1 .3 1 1.2m92.6-33.9l-2.5 1.1c-.4.2-.6.4-.7.7-.1-.5-.5-1.3-1.6-1.3-.9 0-1.8.5-1.8 2.3v1.8c0 .3.3.6.6.6h6.1c.1 0 .1 0 .1-.1v-1.2c0-.1 0-.1-.1-.1h-2.7v-.5c0-.5.2-.7.6-.9l2-.8c.1 0 .1-.1.1-.1v-1.3c.1-.2 0-.2-.1-.2m-3.7 3v.7h-1.9v-.7c0-1.1.7-1.2.9-1.2.5.1 1 .4 1 1.2m19.9-14.5l-1.1-2.5c-.2-.4-.4-.6-.7-.7.5-.1 1.3-.5 1.3-1.6 0-.9-.5-1.8-2.3-1.8h-1.8c-.3 0-.6.3-.6.6v6.1c0 .1 0 .1.1.1h1.2c.1 0 .1 0 .1-.1v-2.7h.5c.5 0 .7.2.9.6l.8 2c0 .1.1.1.1.1h1.4c.1 0 .1-.1.1-.1m-3-3.8h-.7v-1.9h.7c1.1 0 1.2.7 1.2.9 0 .5-.3 1-1.2 1m3 44.3l-1.1-2.5c-.2-.4-.4-.6-.7-.7.5-.1 1.3-.5 1.3-1.6 0-.9-.5-1.8-2.3-1.8h-1.8c-.3 0-.6.3-.6.6v6.1c0 .1 0 .1.1.1h1.2c.1 0 .1 0 .1-.1v-2.7h.5c.5 0 .7.2.9.6l.8 2c0 .1.1.1.1.1h1.4c.1 0 .1-.1.1-.1m-3-3.8h-.7v-1.8h.7c1.1 0 1.2.7 1.2.9 0 .4-.3.9-1.2.9m68.1-16.8l-2.5 1.1c-.4.2-.6.4-.7.7-.1-.5-.5-1.3-1.6-1.3-.9 0-1.8.5-1.8 2.3v1.8c0 .3.3.6.6.6h6.1c.1 0 .1 0 .1-.1v-1.2c0-.1 0-.1-.1-.1h-2.7v-.5c0-.5.2-.7.6-.9l2-.8c.1 0 .1-.1.1-.1v-1.5s0-.1-.1 0m-3.7 3v.7h-1.9v-.7c0-1.1.7-1.2.9-1.2.5 0 1 .3 1 1.2" fill="none"/><path d="M20.3 26.4h88.1v47.2h-88.1zm6.7 6.8h74.6v33.7h-74.6z" fill="none"/></svg>